<svg xmlns="http://www.w3.org/2000/svg" xmlns:xlink="http://www.w3.org/1999/xlink" version="1.1" width="1000" height="1000" viewBox="0 0 1000 1000" xml:space="preserve">
<desc>Created with Fabric.js 3.5.0</desc>
<defs>
</defs>
<rect x="0" y="0" width="100%" height="100%" fill="#ffffff"/>
<g transform="matrix(1.9675 0 0 1.9483 1377.25 954.667)" id="693210">
<g style="" vector-effect="non-scaling-stroke">
		<g transform="matrix(1 0 0 1 -32.2 -134.4)" id="Capa_1">
<path style="stroke: none; stroke-width: 1; stroke-dasharray: none; stroke-linecap: butt; stroke-dashoffset: 0; stroke-linejoin: miter; stroke-miterlimit: 4; is-custom-font: none; font-file-url: none; fill: rgb(194,195,201); fill-rule: nonzero; opacity: 1;" transform=" translate(-667.8, -355.6)" d="M 685.3 380.4 v -49.6 h -35 C 659.5 347.5 671.1 364 685.3 380.4 z" stroke-linecap="round"/>
</g>
		<g transform="matrix(1 0 0 1 -44.75 -207.3)" id="Capa_1">
<path style="stroke: none; stroke-width: 1; stroke-dasharray: none; stroke-linecap: butt; stroke-dashoffset: 0; stroke-linejoin: miter; stroke-miterlimit: 4; is-custom-font: none; font-file-url: none; fill: rgb(194,195,201); fill-rule: nonzero; opacity: 1;" transform=" translate(-655.25, -282.7)" d="M 643.4 317.4 h 41.9 V 248 h -60.1 C 626.5 271.2 632.6 294.4 643.4 317.4 z" stroke-linecap="round"/>
</g>
		<g transform="matrix(1 0 0 1 -33.25 -363.85)" id="Capa_1">
<path style="stroke: none; stroke-width: 1; stroke-dasharray: none; stroke-linecap: butt; stroke-dashoffset: 0; stroke-linejoin: miter; stroke-miterlimit: 4; is-custom-font: none; font-file-url: none; fill: rgb(194,195,201); fill-rule: nonzero; opacity: 1;" transform=" translate(-666.75, -126.15)" d="M 685.3 151.2 V 101 c -8.3 8.5 -23.8 25.9 -37.1 50.3 H 685.3 z" stroke-linecap="round"/>
</g>
		<g transform="matrix(1 0 0 1 -44.9 -290.35)" id="Capa_1">
<path style="stroke: none; stroke-width: 1; stroke-dasharray: none; stroke-linecap: butt; stroke-dashoffset: 0; stroke-linejoin: miter; stroke-miterlimit: 4; is-custom-font: none; font-file-url: none; fill: rgb(194,195,201); fill-rule: nonzero; opacity: 1;" transform=" translate(-655.1, -199.65)" d="M 625.2 228.5 c -0.1 2 -0.1 4 -0.2 6.1 h 60.2 v -69.9 h -43.7 C 633.2 183.1 626.7 204.6 625.2 228.5 z" stroke-linecap="round"/>
</g>
		<g transform="matrix(1 0 0 1 -78.25 -365.45)" id="Capa_1">
<path style="stroke: none; stroke-width: 1; stroke-dasharray: none; stroke-linecap: butt; stroke-dashoffset: 0; stroke-linejoin: miter; stroke-miterlimit: 4; is-custom-font: none; font-file-url: none; fill: rgb(194,195,201); fill-rule: nonzero; opacity: 1;" transform=" translate(-621.75, -124.55)" d="M 669.5 97.9 c -38.5 4.6 -72.4 24.5 -95.5 53.3 h 58.8 C 644.8 127.3 659.3 109.1 669.5 97.9 z" stroke-linecap="round"/>
</g>
		<g transform="matrix(1 0 0 1 -115.35 -290.35)" id="Capa_1">
<path style="stroke: none; stroke-width: 1; stroke-dasharray: none; stroke-linecap: butt; stroke-dashoffset: 0; stroke-linejoin: miter; stroke-miterlimit: 4; is-custom-font: none; font-file-url: none; fill: rgb(194,195,201); fill-rule: nonzero; opacity: 1;" transform=" translate(-584.65, -199.65)" d="M 611.8 227.5 c 1.4 -23.4 7.2 -44.5 14.9 -62.8 h -62.2 c -12.8 20.4 -20.7 44.3 -21.9 69.9 h 69 C 611.7 232.2 611.7 229.9 611.8 227.5 z" stroke-linecap="round"/>
</g>
		<g transform="matrix(1 0 0 1 93.35 -290.45)" id="Capa_1">
<path style="stroke: none; stroke-width: 1; stroke-dasharray: none; stroke-linecap: butt; stroke-dashoffset: 0; stroke-linejoin: miter; stroke-miterlimit: 4; is-custom-font: none; font-file-url: none; fill: rgb(194,195,201); fill-rule: nonzero; opacity: 1;" transform=" translate(-793.35, -199.55)" d="M 770.5 227.5 c 0.1 2.3 0.2 4.7 0.2 7 h 60.4 c -1.2 -25.6 -9.1 -49.4 -21.9 -69.9 h -53.6 C 763.3 183 769.1 204.1 770.5 227.5 z" stroke-linecap="round"/>
</g>
		<g transform="matrix(1 0 0 1 -114.3 -207.3)" id="Capa_1">
<path style="stroke: none; stroke-width: 1; stroke-dasharray: none; stroke-linecap: butt; stroke-dashoffset: 0; stroke-linejoin: miter; stroke-miterlimit: 4; is-custom-font: none; font-file-url: none; fill: rgb(194,195,201); fill-rule: nonzero; opacity: 1;" transform=" translate(-585.7, -282.7)" d="M 611.8 248 h -69.1 c 1.2 25.4 8.9 49.1 21.6 69.4 h 64.4 C 618.6 294.5 612.9 271.3 611.8 248 z" stroke-linecap="round"/>
</g>
		<g transform="matrix(1 0 0 1 -77.45 -132.2)" id="Capa_1">
<path style="stroke: none; stroke-width: 1; stroke-dasharray: none; stroke-linecap: butt; stroke-dashoffset: 0; stroke-linejoin: miter; stroke-miterlimit: 4; is-custom-font: none; font-file-url: none; fill: rgb(194,195,201); fill-rule: nonzero; opacity: 1;" transform=" translate(-622.55, -357.8)" d="M 573.7 330.8 c 23.5 29.6 58.2 49.8 97.7 54 c -14.9 -17.8 -27 -35.8 -36.4 -54 H 573.7 z" stroke-linecap="round"/>
</g>
		<g transform="matrix(1 0 0 1 27.95 -207.3)" id="Capa_1">
<path style="stroke: none; stroke-width: 1; stroke-dasharray: none; stroke-linecap: butt; stroke-dashoffset: 0; stroke-linejoin: miter; stroke-miterlimit: 4; is-custom-font: none; font-file-url: none; fill: rgb(194,195,201); fill-rule: nonzero; opacity: 1;" transform=" translate(-727.95, -282.7)" d="M 757.2 248 h -58.5 v 69.4 H 739 C 749.8 294.4 755.9 271.2 757.2 248 z" stroke-linecap="round"/>
</g>
		<g transform="matrix(1 0 0 1 56.1 -132.8)" id="Capa_1">
<path style="stroke: none; stroke-width: 1; stroke-dasharray: none; stroke-linecap: butt; stroke-dashoffset: 0; stroke-linejoin: miter; stroke-miterlimit: 4; is-custom-font: none; font-file-url: none; fill: rgb(194,195,201); fill-rule: nonzero; opacity: 1;" transform=" translate(-756.1, -357.2)" d="M 712.1 383.5 c 35.5 -6.3 66.5 -25.5 88 -52.6 h -52.8 C 738.2 348.5 726.5 366.1 712.1 383.5 z" stroke-linecap="round"/>
</g>
		<g transform="matrix(1 0 0 1 92.45 -207.3)" id="Capa_1">
<path style="stroke: none; stroke-width: 1; stroke-dasharray: none; stroke-linecap: butt; stroke-dashoffset: 0; stroke-linejoin: miter; stroke-miterlimit: 4; is-custom-font: none; font-file-url: none; fill: rgb(194,195,201); fill-rule: nonzero; opacity: 1;" transform=" translate(-792.45, -282.7)" d="M 753.7 317.4 h 55.9 c 12.7 -20.3 20.4 -44 21.6 -69.4 h -60.6 C 769.4 271.3 763.7 294.5 753.7 317.4 z" stroke-linecap="round"/>
</g>
		<g transform="matrix(1 0 0 1 56.95 -364.7)" id="Capa_1">
<path style="stroke: none; stroke-width: 1; stroke-dasharray: none; stroke-linecap: butt; stroke-dashoffset: 0; stroke-linejoin: miter; stroke-miterlimit: 4; is-custom-font: none; font-file-url: none; fill: rgb(194,195,201); fill-rule: nonzero; opacity: 1;" transform=" translate(-756.95, -125.3)" d="M 799.7 151.2 c -21.1 -26.3 -51.1 -45.2 -85.5 -51.8 c 10.2 11.3 23.9 28.9 35.3 51.8 H 799.7 z" stroke-linecap="round"/>
</g>
		<g transform="matrix(1 0 0 1 -13.1 -248.8)" id="Capa_1">
<path style="stroke: none; stroke-width: 1; stroke-dasharray: none; stroke-linecap: butt; stroke-dashoffset: 0; stroke-linejoin: miter; stroke-miterlimit: 4; is-custom-font: none; font-file-url: none; fill: rgb(114,113,118); fill-rule: nonzero; opacity: 1;" transform=" translate(-686.9, -241.2)" d="M 686.9 70.7 c -94.2 0 -170.5 76.3 -170.5 170.5 c 0 94.2 76.4 170.5 170.5 170.5 c 94.2 0 170.5 -76.3 170.5 -170.5 C 857.4 147.1 781.1 70.7 686.9 70.7 z M 686.9 399.1 c -87.1 0 -157.9 -70.8 -157.9 -157.9 c 0 -87.1 70.8 -157.9 157.9 -157.9 c 87.1 0 157.9 70.8 157.9 157.9 C 844.8 328.3 773.9 399.1 686.9 399.1 z" stroke-linecap="round"/>
</g>
		<g transform="matrix(1 0 0 1 16.45 -363.1)" id="Capa_1">
<path style="stroke: none; stroke-width: 1; stroke-dasharray: none; stroke-linecap: butt; stroke-dashoffset: 0; stroke-linejoin: miter; stroke-miterlimit: 4; is-custom-font: none; font-file-url: none; fill: rgb(194,195,201); fill-rule: nonzero; opacity: 1;" transform=" translate(-716.45, -126.9)" d="M 698.7 102.6 v 48.6 h 35.5 C 721.8 128.3 707.3 111.6 698.7 102.6 z" stroke-linecap="round"/>
</g>
		<g transform="matrix(1 0 0 1 28 -290.45)" id="Capa_1">
<path style="stroke: none; stroke-width: 1; stroke-dasharray: none; stroke-linecap: butt; stroke-dashoffset: 0; stroke-linejoin: miter; stroke-miterlimit: 4; is-custom-font: none; font-file-url: none; fill: rgb(194,195,201); fill-rule: nonzero; opacity: 1;" transform=" translate(-728, -199.55)" d="M 757.1 228.3 c -1.5 -23.9 -7.9 -45.3 -16.2 -63.7 h -42.2 v 69.9 h 58.6 C 757.3 232.5 757.2 230.4 757.1 228.3 z" stroke-linecap="round"/>
</g>
		<g transform="matrix(1 0 0 1 15.4 -135.35)" id="Capa_1">
<path style="stroke: none; stroke-width: 1; stroke-dasharray: none; stroke-linecap: butt; stroke-dashoffset: 0; stroke-linejoin: miter; stroke-miterlimit: 4; is-custom-font: none; font-file-url: none; fill: rgb(194,195,201); fill-rule: nonzero; opacity: 1;" transform=" translate(-715.4, -354.65)" d="M 698.7 330.8 v 47.7 c 13.4 -15.8 24.6 -31.7 33.4 -47.7 H 698.7 z" stroke-linecap="round"/>
</g>
		<g transform="matrix(1 0 0 1 -392.15 -385.9)" id="Capa_1">
<path style="stroke: none; stroke-width: 1; stroke-dasharray: none; stroke-linecap: butt; stroke-dashoffset: 0; stroke-linejoin: miter; stroke-miterlimit: 4; is-custom-font: none; font-file-url: none; fill: rgb(194,195,201); fill-rule: nonzero; opacity: 1;" transform=" translate(-307.85, -104.1)" d="M 358.4 134.7 c -24.9 -31.1 -60.4 -53.4 -101.1 -61.2 c 12 13.4 28.2 34.2 41.7 61.2 H 358.4 z" stroke-linecap="round"/>
</g>
		<g transform="matrix(1 0 0 1 -349.05 -298.1)" id="Capa_1">
<path style="stroke: none; stroke-width: 1; stroke-dasharray: none; stroke-linecap: butt; stroke-dashoffset: 0; stroke-linejoin: miter; stroke-miterlimit: 4; is-custom-font: none; font-file-url: none; fill: rgb(194,195,201); fill-rule: nonzero; opacity: 1;" transform=" translate(-350.95, -191.9)" d="M 323.9 224.9 c 0.2 2.8 0.2 5.5 0.3 8.3 h 71.4 c -1.4 -30.2 -10.7 -58.4 -25.9 -82.6 h -63.4 C 315.3 172.3 322.2 197.2 323.9 224.9 z" stroke-linecap="round"/>
</g>
		<g transform="matrix(1 0 0 1 -350.25 -199.95)" id="Capa_1">
<path style="stroke: none; stroke-width: 1; stroke-dasharray: none; stroke-linecap: butt; stroke-dashoffset: 0; stroke-linejoin: miter; stroke-miterlimit: 4; is-custom-font: none; font-file-url: none; fill: rgb(194,195,201); fill-rule: nonzero; opacity: 1;" transform=" translate(-349.75, -290.05)" d="M 304 331.1 h 66 c 15 -24 24.2 -52 25.5 -82.1 h -71.6 C 322.6 276.6 315.8 304 304 331.1 z" stroke-linecap="round"/>
</g>
		<g transform="matrix(1 0 0 1 -393.2 -111.9)" id="Capa_1">
<path style="stroke: none; stroke-width: 1; stroke-dasharray: none; stroke-linecap: butt; stroke-dashoffset: 0; stroke-linejoin: miter; stroke-miterlimit: 4; is-custom-font: none; font-file-url: none; fill: rgb(194,195,201); fill-rule: nonzero; opacity: 1;" transform=" translate(-306.8, -378.1)" d="M 254.8 409.2 c 41.9 -7.4 78.6 -30.1 104 -62.2 h -62.4 C 285.6 367.9 271.8 388.7 254.8 409.2 z" stroke-linecap="round"/>
</g>
		<g transform="matrix(1 0 0 1 -441.35 -114.8)" id="Capa_1">
<path style="stroke: none; stroke-width: 1; stroke-dasharray: none; stroke-linecap: butt; stroke-dashoffset: 0; stroke-linejoin: miter; stroke-miterlimit: 4; is-custom-font: none; font-file-url: none; fill: rgb(194,195,201); fill-rule: nonzero; opacity: 1;" transform=" translate(-258.65, -375.2)" d="M 238.9 347 v 56.4 c 15.9 -18.7 29 -37.5 39.5 -56.4 H 238.9 z" stroke-linecap="round"/>
</g>
		<g transform="matrix(1 0 0 1 -426.55 -199.85)" id="Capa_1">
<path style="stroke: none; stroke-width: 1; stroke-dasharray: none; stroke-linecap: butt; stroke-dashoffset: 0; stroke-linejoin: miter; stroke-miterlimit: 4; is-custom-font: none; font-file-url: none; fill: rgb(194,195,201); fill-rule: nonzero; opacity: 1;" transform=" translate(-273.45, -290.15)" d="M 308 249.1 h -69.1 v 82.1 h 47.6 C 299.3 303.9 306.5 276.5 308 249.1 z" stroke-linecap="round"/>
</g>
		<g transform="matrix(1 0 0 1 -440.15 -384.05)" id="Capa_1">
<path style="stroke: none; stroke-width: 1; stroke-dasharray: none; stroke-linecap: butt; stroke-dashoffset: 0; stroke-linejoin: miter; stroke-miterlimit: 4; is-custom-font: none; font-file-url: none; fill: rgb(194,195,201); fill-rule: nonzero; opacity: 1;" transform=" translate(-259.85, -105.95)" d="M 238.9 77.2 v 57.5 h 41.9 C 266.2 107.7 249.1 87.8 238.9 77.2 z" stroke-linecap="round"/>
</g>
		<g transform="matrix(1 0 0 1 -426.45 -298.1)" id="Capa_1">
<path style="stroke: none; stroke-width: 1; stroke-dasharray: none; stroke-linecap: butt; stroke-dashoffset: 0; stroke-linejoin: miter; stroke-miterlimit: 4; is-custom-font: none; font-file-url: none; fill: rgb(194,195,201); fill-rule: nonzero; opacity: 1;" transform=" translate(-273.55, -191.9)" d="M 308 226 c -1.7 -28.3 -9.4 -53.7 -19.3 -75.4 h -49.8 v 82.6 h 69.3 C 308.2 230.8 308.2 228.4 308 226 z" stroke-linecap="round"/>
</g>
		<g transform="matrix(1 0 0 1 -551.05 -111.05)" id="Capa_1">
<path style="stroke: none; stroke-width: 1; stroke-dasharray: none; stroke-linecap: butt; stroke-dashoffset: 0; stroke-linejoin: miter; stroke-miterlimit: 4; is-custom-font: none; font-file-url: none; fill: rgb(194,195,201); fill-rule: nonzero; opacity: 1;" transform=" translate(-148.95, -378.95)" d="M 91.2 347 c 27.7 35 68.8 58.9 115.5 63.9 c -17.6 -21.1 -31.9 -42.4 -43 -63.9 H 91.2 z" stroke-linecap="round"/>
</g>
		<g transform="matrix(1 0 0 1 -512.4 -199.95)" id="Capa_1">
<path style="stroke: none; stroke-width: 1; stroke-dasharray: none; stroke-linecap: butt; stroke-dashoffset: 0; stroke-linejoin: miter; stroke-miterlimit: 4; is-custom-font: none; font-file-url: none; fill: rgb(194,195,201); fill-rule: nonzero; opacity: 1;" transform=" translate(-187.6, -290.05)" d="M 173.6 331.1 h 49.5 v -82.1 h -71 C 153.6 276.5 160.8 303.9 173.6 331.1 z" stroke-linecap="round"/>
</g>
		<g transform="matrix(1 0 0 1 -512.5 -298.1)" id="Capa_1">
<path style="stroke: none; stroke-width: 1; stroke-dasharray: none; stroke-linecap: butt; stroke-dashoffset: 0; stroke-linejoin: miter; stroke-miterlimit: 4; is-custom-font: none; font-file-url: none; fill: rgb(194,195,201); fill-rule: nonzero; opacity: 1;" transform=" translate(-187.5, -191.9)" d="M 152.1 226 c -0.1 2.4 -0.2 4.8 -0.2 7.2 h 71.2 v -82.6 h -51.7 C 161.5 172.4 153.8 197.8 152.1 226 z" stroke-linecap="round"/>
</g>
		<g transform="matrix(1 0 0 1 -498.8 -385)" id="Capa_1">
<path style="stroke: none; stroke-width: 1; stroke-dasharray: none; stroke-linecap: butt; stroke-dashoffset: 0; stroke-linejoin: miter; stroke-miterlimit: 4; is-custom-font: none; font-file-url: none; fill: rgb(194,195,201); fill-rule: nonzero; opacity: 1;" transform=" translate(-201.2, -105)" d="M 223.1 134.7 V 75.3 c -9.8 10 -28.2 30.7 -43.8 59.4 H 223.1 z" stroke-linecap="round"/>
</g>
		<g transform="matrix(1 0 0 1 -594.65 -199.85)" id="Capa_1">
<path style="stroke: none; stroke-width: 1; stroke-dasharray: none; stroke-linecap: butt; stroke-dashoffset: 0; stroke-linejoin: miter; stroke-miterlimit: 4; is-custom-font: none; font-file-url: none; fill: rgb(194,195,201); fill-rule: nonzero; opacity: 1;" transform=" translate(-105.35, -290.15)" d="M 136.2 249.1 H 54.5 c 1.4 30 10.6 58 25.5 82.1 h 76.2 C 144.3 304 137.6 276.6 136.2 249.1 z" stroke-linecap="round"/>
</g>
		<g transform="matrix(1 0 0 1 -551.95 -386.8)" id="Capa_1">
<path style="stroke: none; stroke-width: 1; stroke-dasharray: none; stroke-linecap: butt; stroke-dashoffset: 0; stroke-linejoin: miter; stroke-miterlimit: 4; is-custom-font: none; font-file-url: none; fill: rgb(194,195,201); fill-rule: nonzero; opacity: 1;" transform=" translate(-148.05, -103.2)" d="M 204.5 71.7 c -45.5 5.5 -85.6 28.9 -112.9 63 h 69.5 C 175.2 106.4 192.4 84.9 204.5 71.7 z" stroke-linecap="round"/>
</g>
		<g transform="matrix(1 0 0 1 -497.6 -113.7)" id="Capa_1">
<path style="stroke: none; stroke-width: 1; stroke-dasharray: none; stroke-linecap: butt; stroke-dashoffset: 0; stroke-linejoin: miter; stroke-miterlimit: 4; is-custom-font: none; font-file-url: none; fill: rgb(194,195,201); fill-rule: nonzero; opacity: 1;" transform=" translate(-202.4, -376.3)" d="M 223.1 405.6 V 347 h -41.4 C 192.6 366.7 206.4 386.2 223.1 405.6 z" stroke-linecap="round"/>
</g>
		<g transform="matrix(1 0 0 1 -595.85 -298.1)" id="Capa_1">
<path style="stroke: none; stroke-width: 1; stroke-dasharray: none; stroke-linecap: butt; stroke-dashoffset: 0; stroke-linejoin: miter; stroke-miterlimit: 4; is-custom-font: none; font-file-url: none; fill: rgb(194,195,201); fill-rule: nonzero; opacity: 1;" transform=" translate(-104.15, -191.9)" d="M 136.3 224.9 c 1.7 -27.7 8.5 -52.6 17.6 -74.3 H 80.3 c -15.2 24.2 -24.5 52.4 -25.9 82.6 H 136 C 136.1 230.4 136.1 227.6 136.3 224.9 z" stroke-linecap="round"/>
</g>
		<g transform="matrix(1 0 0 1 455.9 -134.35)" id="Capa_1">
<path style="stroke: none; stroke-width: 1; stroke-dasharray: none; stroke-linecap: butt; stroke-dashoffset: 0; stroke-linejoin: miter; stroke-miterlimit: 4; is-custom-font: none; font-file-url: none; fill: rgb(194,195,201); fill-rule: nonzero; opacity: 1;" transform=" translate(-1155.9, -355.65)" d="M 1173.4 380.4 v -49.5 h -35 C 1147.6 347.5 1159.2 364 1173.4 380.4 z" stroke-linecap="round"/>
</g>
		<g transform="matrix(1 0 0 1 443.4 -207.3)" id="Capa_1">
<path style="stroke: none; stroke-width: 1; stroke-dasharray: none; stroke-linecap: butt; stroke-dashoffset: 0; stroke-linejoin: miter; stroke-miterlimit: 4; is-custom-font: none; font-file-url: none; fill: rgb(194,195,201); fill-rule: nonzero; opacity: 1;" transform=" translate(-1143.4, -282.7)" d="M 1131.5 317.4 h 41.9 V 248 h -60 C 1114.6 271.3 1120.7 294.4 1131.5 317.4 z" stroke-linecap="round"/>
</g>
		<g transform="matrix(1 0 0 1 454.9 -363.85)" id="Capa_1">
<path style="stroke: none; stroke-width: 1; stroke-dasharray: none; stroke-linecap: butt; stroke-dashoffset: 0; stroke-linejoin: miter; stroke-miterlimit: 4; is-custom-font: none; font-file-url: none; fill: rgb(194,195,201); fill-rule: nonzero; opacity: 1;" transform=" translate(-1154.9, -126.15)" d="M 1173.4 151.3 v -50.3 c -8.3 8.5 -23.8 25.9 -37 50.3 H 1173.4 z" stroke-linecap="round"/>
</g>
		<g transform="matrix(1 0 0 1 443.3 -290.35)" id="Capa_1">
<path style="stroke: none; stroke-width: 1; stroke-dasharray: none; stroke-linecap: butt; stroke-dashoffset: 0; stroke-linejoin: miter; stroke-miterlimit: 4; is-custom-font: none; font-file-url: none; fill: rgb(194,195,201); fill-rule: nonzero; opacity: 1;" transform=" translate(-1143.3, -199.65)" d="M 1113.4 228.5 c -0.1 2 -0.1 4 -0.2 6.1 h 60.2 v -69.9 h -43.7 C 1121.3 183.2 1114.8 204.6 1113.4 228.5 z" stroke-linecap="round"/>
</g>
		<g transform="matrix(1 0 0 1 409.95 -365.35)" id="Capa_1">
<path style="stroke: none; stroke-width: 1; stroke-dasharray: none; stroke-linecap: butt; stroke-dashoffset: 0; stroke-linejoin: miter; stroke-miterlimit: 4; is-custom-font: none; font-file-url: none; fill: rgb(194,195,201); fill-rule: nonzero; opacity: 1;" transform=" translate(-1109.95, -124.65)" d="M 1157.7 98 c -38.5 4.6 -72.4 24.5 -95.5 53.3 h 58.8 C 1132.9 127.4 1147.4 109.2 1157.7 98 z" stroke-linecap="round"/>
</g>
		<g transform="matrix(1 0 0 1 372.85 -290.25)" id="Capa_1">
<path style="stroke: none; stroke-width: 1; stroke-dasharray: none; stroke-linecap: butt; stroke-dashoffset: 0; stroke-linejoin: miter; stroke-miterlimit: 4; is-custom-font: none; font-file-url: none; fill: rgb(194,195,201); fill-rule: nonzero; opacity: 1;" transform=" translate(-1072.85, -199.75)" d="M 1100 227.6 c 1.4 -23.4 7.2 -44.5 14.9 -62.8 h -62.2 c -12.8 20.4 -20.7 44.3 -21.9 69.9 h 69 C 1099.8 232.3 1099.8 229.9 1100 227.6 z" stroke-linecap="round"/>
</g>
		<g transform="matrix(1 0 0 1 581.45 -290.35)" id="Capa_1">
<path style="stroke: none; stroke-width: 1; stroke-dasharray: none; stroke-linecap: butt; stroke-dashoffset: 0; stroke-linejoin: miter; stroke-miterlimit: 4; is-custom-font: none; font-file-url: none; fill: rgb(194,195,201); fill-rule: nonzero; opacity: 1;" transform=" translate(-1281.45, -199.65)" d="M 1258.6 227.6 c 0.1 2.3 0.2 4.7 0.2 7 h 60.4 c -1.2 -25.6 -9.1 -49.4 -21.9 -69.9 h -53.6 C 1251.4 183.1 1257.2 204.2 1258.6 227.6 z" stroke-linecap="round"/>
</g>
		<g transform="matrix(1 0 0 1 373.8 -207.3)" id="Capa_1">
<path style="stroke: none; stroke-width: 1; stroke-dasharray: none; stroke-linecap: butt; stroke-dashoffset: 0; stroke-linejoin: miter; stroke-miterlimit: 4; is-custom-font: none; font-file-url: none; fill: rgb(194,195,201); fill-rule: nonzero; opacity: 1;" transform=" translate(-1073.8, -282.7)" d="M 1099.9 248 h -69.1 c 1.2 25.4 8.9 49.1 21.6 69.4 h 64.4 C 1106.7 294.5 1101.1 271.3 1099.9 248 z" stroke-linecap="round"/>
</g>
		<g transform="matrix(1 0 0 1 410.65 -132.1)" id="Capa_1">
<path style="stroke: none; stroke-width: 1; stroke-dasharray: none; stroke-linecap: butt; stroke-dashoffset: 0; stroke-linejoin: miter; stroke-miterlimit: 4; is-custom-font: none; font-file-url: none; fill: rgb(194,195,201); fill-rule: nonzero; opacity: 1;" transform=" translate(-1110.65, -357.9)" d="M 1061.8 330.9 c 23.5 29.6 58.2 49.8 97.7 54 c -14.9 -17.8 -27 -35.8 -36.4 -54 H 1061.8 z" stroke-linecap="round"/>
</g>
		<g transform="matrix(1 0 0 1 516.05 -207.3)" id="Capa_1">
<path style="stroke: none; stroke-width: 1; stroke-dasharray: none; stroke-linecap: butt; stroke-dashoffset: 0; stroke-linejoin: miter; stroke-miterlimit: 4; is-custom-font: none; font-file-url: none; fill: rgb(194,195,201); fill-rule: nonzero; opacity: 1;" transform=" translate(-1216.05, -282.7)" d="M 1245.3 248 h -58.5 v 69.4 h 40.3 C 1237.9 294.4 1244 271.3 1245.3 248 z" stroke-linecap="round"/>
</g>
		<g transform="matrix(1 0 0 1 544.2 -132.8)" id="Capa_1">
<path style="stroke: none; stroke-width: 1; stroke-dasharray: none; stroke-linecap: butt; stroke-dashoffset: 0; stroke-linejoin: miter; stroke-miterlimit: 4; is-custom-font: none; font-file-url: none; fill: rgb(194,195,201); fill-rule: nonzero; opacity: 1;" transform=" translate(-1244.2, -357.2)" d="M 1200.2 383.5 c 35.4 -6.3 66.5 -25.5 88 -52.6 h -52.8 C 1226.3 348.6 1214.6 366.1 1200.2 383.5 z" stroke-linecap="round"/>
</g>
		<g transform="matrix(1 0 0 1 580.5 -207.3)" id="Capa_1">
<path style="stroke: none; stroke-width: 1; stroke-dasharray: none; stroke-linecap: butt; stroke-dashoffset: 0; stroke-linejoin: miter; stroke-miterlimit: 4; is-custom-font: none; font-file-url: none; fill: rgb(194,195,201); fill-rule: nonzero; opacity: 1;" transform=" translate(-1280.5, -282.7)" d="M 1241.8 317.4 h 55.8 c 12.7 -20.3 20.4 -44 21.6 -69.4 h -60.5 C 1257.5 271.3 1251.8 294.5 1241.8 317.4 z" stroke-linecap="round"/>
</g>
		<g transform="matrix(1 0 0 1 545.05 -364.6)" id="Capa_1">
<path style="stroke: none; stroke-width: 1; stroke-dasharray: none; stroke-linecap: butt; stroke-dashoffset: 0; stroke-linejoin: miter; stroke-miterlimit: 4; is-custom-font: none; font-file-url: none; fill: rgb(194,195,201); fill-rule: nonzero; opacity: 1;" transform=" translate(-1245.05, -125.4)" d="M 1287.8 151.3 c -21.1 -26.3 -51.1 -45.2 -85.5 -51.8 c 10.2 11.3 23.9 28.9 35.3 51.8 H 1287.8 z" stroke-linecap="round"/>
</g>
		<g transform="matrix(1 0 0 1 504.55 -363)" id="Capa_1">
<path style="stroke: none; stroke-width: 1; stroke-dasharray: none; stroke-linecap: butt; stroke-dashoffset: 0; stroke-linejoin: miter; stroke-miterlimit: 4; is-custom-font: none; font-file-url: none; fill: rgb(194,195,201); fill-rule: nonzero; opacity: 1;" transform=" translate(-1204.55, -127)" d="M 1186.8 102.7 v 48.6 h 35.5 C 1209.9 128.4 1195.4 111.6 1186.8 102.7 z" stroke-linecap="round"/>
</g>
		<g transform="matrix(1 0 0 1 516.1 -290.25)" id="Capa_1">
<path style="stroke: none; stroke-width: 1; stroke-dasharray: none; stroke-linecap: butt; stroke-dashoffset: 0; stroke-linejoin: miter; stroke-miterlimit: 4; is-custom-font: none; font-file-url: none; fill: rgb(194,195,201); fill-rule: nonzero; opacity: 1;" transform=" translate(-1216.1, -199.75)" d="M 1245.2 228.4 c -1.5 -23.9 -7.9 -45.3 -16.2 -63.6 h -42.2 v 69.9 h 58.6 C 1245.4 232.5 1245.3 230.5 1245.2 228.4 z" stroke-linecap="round"/>
</g>
		<g transform="matrix(1 0 0 1 503.5 -135.25)" id="Capa_1">
<path style="stroke: none; stroke-width: 1; stroke-dasharray: none; stroke-linecap: butt; stroke-dashoffset: 0; stroke-linejoin: miter; stroke-miterlimit: 4; is-custom-font: none; font-file-url: none; fill: rgb(194,195,201); fill-rule: nonzero; opacity: 1;" transform=" translate(-1203.5, -354.75)" d="M 1186.8 330.9 v 47.7 c 13.4 -15.8 24.5 -31.7 33.4 -47.7 H 1186.8 z" stroke-linecap="round"/>
</g>
		<g transform="matrix(1 0 0 1 490.1064 -317.8602)" id="Capa_1">
<path style="stroke: none; stroke-width: 1; stroke-dasharray: none; stroke-linecap: butt; stroke-dashoffset: 0; stroke-linejoin: miter; stroke-miterlimit: 4; is-custom-font: none; font-file-url: none; fill: rgb(114,113,118); fill-rule: nonzero; opacity: 1;" transform=" translate(-1190.1064, -172.1398)" d="M 1046.6 149.5 c 41.9 -58.6 120.3 -82.8 189.5 -53.8 c 69.2 29 106.9 101.9 94.4 172.9 l 12 5 c 15.1 -77.6 -25.7 -157.8 -101.5 -189.6 c -75.8 -31.8 -161.5 -4.7 -206.4 60.4 L 1046.6 149.5 z" stroke-linecap="round"/>
</g>
		<g transform="matrix(1 0 0 1 341.95 -338.95)" id="Capa_1">
<polygon style="stroke: none; stroke-width: 1; stroke-dasharray: none; stroke-linecap: butt; stroke-dashoffset: 0; stroke-linejoin: miter; stroke-miterlimit: 4; is-custom-font: none; font-file-url: none; fill: rgb(114,113,118); fill-rule: nonzero; opacity: 1;" points="12.25,-0.95 -11.15,13.85 -12.25,-13.85 "/>
</g>
		<g transform="matrix(1 0 0 1 462.6769 -179.3854)" id="Capa_1">
<path style="stroke: none; stroke-width: 1; stroke-dasharray: none; stroke-linecap: butt; stroke-dashoffset: 0; stroke-linejoin: miter; stroke-miterlimit: 4; is-custom-font: none; font-file-url: none; fill: rgb(114,113,118); fill-rule: nonzero; opacity: 1;" transform=" translate(-1162.6769, -310.6146)" d="M 1320.9 344.6 l -1.2 -29.3 l -24.8 15.7 l 7.2 3.8 c -42.2 57.4 -119.7 80.8 -188.2 52.1 c -69.1 -29 -106.8 -101.7 -94.4 -172.6 l -12 -5 c -14.9 77.5 25.8 157.6 101.5 189.3 c 74.7 31.4 159.1 5.4 204.4 -57.8 L 1320.9 344.6 z" stroke-linecap="round"/>
</g>
		<g transform="matrix(1 0 0 1 -475 208.4)" id="Capa_1">
<path style="stroke: none; stroke-width: 1; stroke-dasharray: none; stroke-linecap: butt; stroke-dashoffset: 0; stroke-linejoin: miter; stroke-miterlimit: 4; is-custom-font: none; font-file-url: none; fill: rgb(114,113,118); fill-rule: nonzero; opacity: 1;" transform=" translate(-225, -698.4)" d="M 225 527.9 c -94 0 -170.5 76.5 -170.5 170.5 S 131 868.9 225 868.9 c 94 0 170.5 -76.5 170.5 -170.5 S 319 527.9 225 527.9 z M 69.2 705.6 h 74.7 c 1.3 25.2 7.4 50.2 18.3 75 H 92.5 C 78.8 758.7 70.4 733.1 69.2 705.6 z M 237.7 601.1 v -52.5 c 9.3 9.7 24.9 27.8 38.4 52.5 H 237.7 z M 283.3 615.7 c 9 19.8 16 43 17.6 68.8 c 0.1 2.2 0.2 4.5 0.2 6.7 h -63.3 v -75.5 H 283.3 z M 223.2 601.1 h -40 c 14.3 -26.3 31 -45.1 40 -54.3 V 601.1 z M 223.2 615.7 v 75.5 h -65 c 0.1 -2.2 0.1 -4.4 0.2 -6.6 c 1.6 -25.8 8.6 -49 17.6 -68.9 H 223.2 z M 143.9 683.5 c -0.2 2.5 -0.2 5.1 -0.2 7.6 H 69.2 c 1.3 -27.6 9.8 -53.4 23.6 -75.5 H 160 C 151.7 635.5 145.5 658.3 143.9 683.5 z M 158.4 705.6 h 64.9 v 75 H 178 C 166.3 755.8 159.7 730.7 158.4 705.6 z M 223.2 795.1 v 53.5 c -15.3 -17.7 -27.9 -35.6 -37.8 -53.5 H 223.2 z M 237.7 795.1 h 36.1 c -9.6 17.3 -21.6 34.5 -36.1 51.6 V 795.1 z M 237.7 780.6 v -75 h 63.2 c -1.4 25.1 -8 50.1 -19.6 75 H 237.7 z M 315.4 705.6 h 65.4 c -1.3 27.4 -9.6 53 -23.3 75 h -60.3 C 308 755.8 314.1 730.8 315.4 705.6 z M 315.6 691.1 c -0.1 -2.5 -0.1 -5.1 -0.2 -7.6 c -1.5 -25.3 -7.8 -48 -16.1 -67.9 h 57.9 c 13.9 22.1 22.4 47.8 23.6 75.5 H 315.6 z M 346.9 601.1 h -54.2 c -12.3 -24.7 -27.2 -43.7 -38.1 -55.9 C 291.6 552.3 324.1 572.7 346.9 601.1 z M 206.3 543.5 c -11.1 12.1 -26.8 31.8 -39.7 57.6 h -63.5 C 128 570 164.7 548.5 206.3 543.5 z M 102.7 795.1 H 169 c 10.1 19.6 23.2 39.1 39.3 58.4 C 165.6 848.9 128.1 827.1 102.7 795.1 z M 252.2 852 c 15.5 -18.8 28.2 -37.7 38 -56.8 h 57 C 324 824.4 290.5 845.2 252.2 852 z" stroke-linecap="round"/>
</g>
		<g transform="matrix(1 0 0 1 69.85 86.75)" id="Capa_1">
<path style="stroke: none; stroke-width: 1; stroke-dasharray: none; stroke-linecap: butt; stroke-dashoffset: 0; stroke-linejoin: miter; stroke-miterlimit: 4; is-custom-font: none; font-file-url: none; fill: rgb(194,195,201); fill-rule: nonzero; opacity: 1;" transform=" translate(-769.85, -576.75)" d="M 723.7 548.8 c 11 12.2 25.8 31.3 38.1 55.9 H 816 C 793.3 576.3 760.8 556 723.7 548.8 z" stroke-linecap="round"/>
</g>
		<g transform="matrix(1 0 0 1 109.2 167.05)" id="Capa_1">
<path style="stroke: none; stroke-width: 1; stroke-dasharray: none; stroke-linecap: butt; stroke-dashoffset: 0; stroke-linejoin: miter; stroke-miterlimit: 4; is-custom-font: none; font-file-url: none; fill: rgb(194,195,201); fill-rule: nonzero; opacity: 1;" transform=" translate(-809.2, -657.05)" d="M 826.3 619.3 h -57.9 c 8.3 19.8 14.5 42.6 16.1 67.9 c 0.2 2.5 0.2 5.1 0.2 7.6 H 850 C 848.7 667.1 840.2 641.4 826.3 619.3 z" stroke-linecap="round"/>
</g>
		<g transform="matrix(1 0 0 1 108.15 256.8)" id="Capa_1">
<path style="stroke: none; stroke-width: 1; stroke-dasharray: none; stroke-linecap: butt; stroke-dashoffset: 0; stroke-linejoin: miter; stroke-miterlimit: 4; is-custom-font: none; font-file-url: none; fill: rgb(194,195,201); fill-rule: nonzero; opacity: 1;" transform=" translate(-808.15, -746.8)" d="M 850 709.3 h -65.4 c -1.3 25.2 -7.4 50.2 -18.3 75 h 60.3 C 840.3 762.3 848.7 736.7 850 709.3 z" stroke-linecap="round"/>
</g>
		<g transform="matrix(1 0 0 1 68.9 337.2)" id="Capa_1">
<path style="stroke: none; stroke-width: 1; stroke-dasharray: none; stroke-linecap: butt; stroke-dashoffset: 0; stroke-linejoin: miter; stroke-miterlimit: 4; is-custom-font: none; font-file-url: none; fill: rgb(194,195,201); fill-rule: nonzero; opacity: 1;" transform=" translate(-768.9, -827.2)" d="M 759.4 798.8 c -9.8 19.1 -22.5 38.1 -38 56.8 c 38.3 -6.8 71.8 -27.5 95 -56.8 H 759.4 z" stroke-linecap="round"/>
</g>
		<g transform="matrix(1 0 0 1 24.95 334.5)" id="Capa_1">
<path style="stroke: none; stroke-width: 1; stroke-dasharray: none; stroke-linecap: butt; stroke-dashoffset: 0; stroke-linejoin: miter; stroke-miterlimit: 4; is-custom-font: none; font-file-url: none; fill: rgb(194,195,201); fill-rule: nonzero; opacity: 1;" transform=" translate(-724.95, -824.5)" d="M 706.9 850.3 c 14.5 -17.1 26.5 -34.3 36.1 -51.6 h -36.1 V 850.3 z" stroke-linecap="round"/>
</g>
		<g transform="matrix(1 0 0 1 38.45 256.8)" id="Capa_1">
<path style="stroke: none; stroke-width: 1; stroke-dasharray: none; stroke-linecap: butt; stroke-dashoffset: 0; stroke-linejoin: miter; stroke-miterlimit: 4; is-custom-font: none; font-file-url: none; fill: rgb(194,195,201); fill-rule: nonzero; opacity: 1;" transform=" translate(-738.45, -746.8)" d="M 770 709.3 h -63.1 v 75 h 43.5 C 762.1 759.4 768.7 734.4 770 709.3 z" stroke-linecap="round"/>
</g>
		<g transform="matrix(1 0 0 1 26.05 88.55)" id="Capa_1">
<path style="stroke: none; stroke-width: 1; stroke-dasharray: none; stroke-linecap: butt; stroke-dashoffset: 0; stroke-linejoin: miter; stroke-miterlimit: 4; is-custom-font: none; font-file-url: none; fill: rgb(194,195,201); fill-rule: nonzero; opacity: 1;" transform=" translate(-726.05, -578.55)" d="M 706.9 604.8 h 38.3 c -13.4 -24.7 -29 -42.8 -38.3 -52.5 V 604.8 z" stroke-linecap="round"/>
</g>
		<g transform="matrix(1 0 0 1 38.55 167.05)" id="Capa_1">
<path style="stroke: none; stroke-width: 1; stroke-dasharray: none; stroke-linecap: butt; stroke-dashoffset: 0; stroke-linejoin: miter; stroke-miterlimit: 4; is-custom-font: none; font-file-url: none; fill: rgb(194,195,201); fill-rule: nonzero; opacity: 1;" transform=" translate(-738.55, -657.05)" d="M 770 688.2 c -1.6 -25.8 -8.6 -49 -17.6 -68.9 h -45.5 v 75.5 h 63.3 C 770.1 692.6 770.1 690.4 770 688.2 z" stroke-linecap="round"/>
</g>
		<g transform="matrix(1 0 0 1 -75.4 337.9)" id="Capa_1">
<path style="stroke: none; stroke-width: 1; stroke-dasharray: none; stroke-linecap: butt; stroke-dashoffset: 0; stroke-linejoin: miter; stroke-miterlimit: 4; is-custom-font: none; font-file-url: none; fill: rgb(194,195,201); fill-rule: nonzero; opacity: 1;" transform=" translate(-624.6, -827.9)" d="M 677.4 857.1 c -16.1 -19.3 -29.2 -38.7 -39.3 -58.4 h -66.3 C 597.2 830.7 634.8 852.6 677.4 857.1 z" stroke-linecap="round"/>
</g>
		<g transform="matrix(1 0 0 1 -40.05 256.8)" id="Capa_1">
<path style="stroke: none; stroke-width: 1; stroke-dasharray: none; stroke-linecap: butt; stroke-dashoffset: 0; stroke-linejoin: miter; stroke-miterlimit: 4; is-custom-font: none; font-file-url: none; fill: rgb(194,195,201); fill-rule: nonzero; opacity: 1;" transform=" translate(-659.95, -746.8)" d="M 692.4 709.3 h -64.9 c 1.4 25.1 8 50.1 19.6 75 h 45.2 V 709.3 z" stroke-linecap="round"/>
</g>
		<g transform="matrix(1 0 0 1 -40.1 167.05)" id="Capa_1">
<path style="stroke: none; stroke-width: 1; stroke-dasharray: none; stroke-linecap: butt; stroke-dashoffset: 0; stroke-linejoin: miter; stroke-miterlimit: 4; is-custom-font: none; font-file-url: none; fill: rgb(194,195,201); fill-rule: nonzero; opacity: 1;" transform=" translate(-659.9, -657.05)" d="M 692.4 619.3 h -47.2 c -9 19.9 -16 43.1 -17.6 68.9 c -0.1 2.2 -0.1 4.4 -0.2 6.6 h 65 V 619.3 z" stroke-linecap="round"/>
</g>
		<g transform="matrix(1 0 0 1 -27.6 87.65)" id="Capa_1">
<path style="stroke: none; stroke-width: 1; stroke-dasharray: none; stroke-linecap: butt; stroke-dashoffset: 0; stroke-linejoin: miter; stroke-miterlimit: 4; is-custom-font: none; font-file-url: none; fill: rgb(194,195,201); fill-rule: nonzero; opacity: 1;" transform=" translate(-672.4, -577.65)" d="M 692.4 550.5 c -9 9.1 -25.8 28 -40 54.3 h 40 V 550.5 z" stroke-linecap="round"/>
</g>
		<g transform="matrix(1 0 0 1 -115.3 256.8)" id="Capa_1">
<path style="stroke: none; stroke-width: 1; stroke-dasharray: none; stroke-linecap: butt; stroke-dashoffset: 0; stroke-linejoin: miter; stroke-miterlimit: 4; is-custom-font: none; font-file-url: none; fill: rgb(194,195,201); fill-rule: nonzero; opacity: 1;" transform=" translate(-584.7, -746.8)" d="M 561.6 784.3 h 69.6 c -10.9 -24.8 -17 -49.8 -18.3 -75 h -74.7 C 539.6 736.7 548 762.3 561.6 784.3 z" stroke-linecap="round"/>
</g>
		<g transform="matrix(1 0 0 1 -76.15 86)" id="Capa_1">
<path style="stroke: none; stroke-width: 1; stroke-dasharray: none; stroke-linecap: butt; stroke-dashoffset: 0; stroke-linejoin: miter; stroke-miterlimit: 4; is-custom-font: none; font-file-url: none; fill: rgb(194,195,201); fill-rule: nonzero; opacity: 1;" transform=" translate(-623.85, -576)" d="M 675.4 547.2 c -41.6 5 -78.2 26.4 -103.1 57.6 h 63.5 C 648.7 578.9 664.3 559.3 675.4 547.2 z" stroke-linecap="round"/>
</g>
		<g transform="matrix(1 0 0 1 -26.5 335.55)" id="Capa_1">
<path style="stroke: none; stroke-width: 1; stroke-dasharray: none; stroke-linecap: butt; stroke-dashoffset: 0; stroke-linejoin: miter; stroke-miterlimit: 4; is-custom-font: none; font-file-url: none; fill: rgb(194,195,201); fill-rule: nonzero; opacity: 1;" transform=" translate(-673.5, -825.55)" d="M 692.4 798.8 h -37.8 c 9.9 18 22.5 35.8 37.8 53.5 V 798.8 z" stroke-linecap="round"/>
</g>
		<g transform="matrix(1 0 0 1 -116.35 167.05)" id="Capa_1">
<path style="stroke: none; stroke-width: 1; stroke-dasharray: none; stroke-linecap: butt; stroke-dashoffset: 0; stroke-linejoin: miter; stroke-miterlimit: 4; is-custom-font: none; font-file-url: none; fill: rgb(194,195,201); fill-rule: nonzero; opacity: 1;" transform=" translate(-583.65, -657.05)" d="M 538.3 694.8 h 74.5 c 0.1 -2.5 0.1 -5.1 0.2 -7.6 c 1.5 -25.3 7.8 -48 16 -67.9 H 562 C 548.1 641.4 539.6 667.1 538.3 694.8 z" stroke-linecap="round"/>
</g>
		<g transform="matrix(1 0 0 1 -13.1 208.4)" id="Capa_1">
<path style="stroke: none; stroke-width: 1; stroke-dasharray: none; stroke-linecap: butt; stroke-dashoffset: 0; stroke-linejoin: miter; stroke-miterlimit: 4; is-custom-font: none; font-file-url: none; fill: rgb(114,113,118); fill-rule: nonzero; opacity: 1;" transform=" translate(-686.9, -698.4)" d="M 686.9 868.9 c -94 0 -170.5 -76.5 -170.5 -170.5 c 0 -94 76.5 -170.5 170.5 -170.5 c 94 0 170.5 76.5 170.5 170.5 C 857.4 792.4 780.9 868.9 686.9 868.9 z M 686.9 542.4 c -86 0 -156 70 -156 156 c 0 86 70 156 156 156 c 86 0 156 -70 156 -156 C 842.9 612.4 772.9 542.4 686.9 542.4 z" stroke-linecap="round"/>
</g>
		<g transform="matrix(1 0 0 1 -13.1 208.35)" id="Capa_1">
<rect style="stroke: none; stroke-width: 1; stroke-dasharray: none; stroke-linecap: butt; stroke-dashoffset: 0; stroke-linejoin: miter; stroke-miterlimit: 4; is-custom-font: none; font-file-url: none; fill: rgb(114,113,118); fill-rule: nonzero; opacity: 1;" x="-163.3" y="-7.25" rx="0" ry="0" width="326.6" height="14.5"/>
</g>
		<g transform="matrix(1 0 0 1 -13.15 118.35)" id="Capa_1">
<rect style="stroke: none; stroke-width: 1; stroke-dasharray: none; stroke-linecap: butt; stroke-dashoffset: 0; stroke-linejoin: miter; stroke-miterlimit: 4; is-custom-font: none; font-file-url: none; fill: rgb(114,113,118); fill-rule: nonzero; opacity: 1;" x="-136.25" y="-7.25" rx="0" ry="0" width="272.5" height="14.5"/>
</g>
		<g transform="matrix(1 0 0 1 -13.15 297.85)" id="Capa_1">
<rect style="stroke: none; stroke-width: 1; stroke-dasharray: none; stroke-linecap: butt; stroke-dashoffset: 0; stroke-linejoin: miter; stroke-miterlimit: 4; is-custom-font: none; font-file-url: none; fill: rgb(114,113,118); fill-rule: nonzero; opacity: 1;" x="-136.25" y="-7.25" rx="0" ry="0" width="272.5" height="14.5"/>
</g>
		<g transform="matrix(1 0 0 1 -51.1349 208.05)" id="Capa_1">
<path style="stroke: none; stroke-width: 1; stroke-dasharray: none; stroke-linecap: butt; stroke-dashoffset: 0; stroke-linejoin: miter; stroke-miterlimit: 4; is-custom-font: none; font-file-url: none; fill: rgb(114,113,118); fill-rule: nonzero; opacity: 1;" transform=" translate(-648.8651, -698.05)" d="M 681.5 866.5 c -54 -59.3 -79.5 -120.9 -75.7 -183 c 5.7 -92.2 73.5 -151.4 76.3 -153.9 l 9.5 11 c -0.7 0.6 -66.1 57.9 -71.3 144 c -3.5 58 20.7 115.9 72 172.2 L 681.5 866.5 z" stroke-linecap="round"/>
</g>
		<g transform="matrix(1 0 0 1 34.2265 208)" id="Capa_1">
<path style="stroke: none; stroke-width: 1; stroke-dasharray: none; stroke-linecap: butt; stroke-dashoffset: 0; stroke-linejoin: miter; stroke-miterlimit: 4; is-custom-font: none; font-file-url: none; fill: rgb(114,113,118); fill-rule: nonzero; opacity: 1;" transform=" translate(-734.2265, -698)" d="M 701.5 866.5 l -10.7 -9.8 c 51.3 -56.3 75.5 -114.2 72 -172.2 c -5.2 -86 -70.7 -143.4 -71.3 -144 l 9.5 -11 c 2.9 2.5 70.7 61.7 76.3 153.9 C 781 745.6 755.6 807.2 701.5 866.5 z" stroke-linecap="round"/>
</g>
		<g transform="matrix(1 0 0 1 -7.65 208.35)" id="Capa_1">
<rect style="stroke: none; stroke-width: 1; stroke-dasharray: none; stroke-linecap: butt; stroke-dashoffset: 0; stroke-linejoin: miter; stroke-miterlimit: 4; is-custom-font: none; font-file-url: none; fill: rgb(114,113,118); fill-rule: nonzero; opacity: 1;" x="-7.25" y="-163.15" rx="0" ry="0" width="14.5" height="326.3"/>
</g>
		<g transform="matrix(1 0 0 1 541.65 86.75)" id="Capa_1">
<path style="stroke: none; stroke-width: 1; stroke-dasharray: none; stroke-linecap: butt; stroke-dashoffset: 0; stroke-linejoin: miter; stroke-miterlimit: 4; is-custom-font: none; font-file-url: none; fill: rgb(114,113,118); fill-rule: nonzero; opacity: 1;" transform=" translate(-1241.65, -576.75)" d="M 1195.5 548.8 c 11 12.2 25.8 31.3 38.1 55.9 h 54.2 C 1265.1 576.3 1232.7 556 1195.5 548.8 z" stroke-linecap="round"/>
</g>
		<g transform="matrix(1 0 0 1 581.1 167.05)" id="Capa_1">
<path style="stroke: none; stroke-width: 1; stroke-dasharray: none; stroke-linecap: butt; stroke-dashoffset: 0; stroke-linejoin: miter; stroke-miterlimit: 4; is-custom-font: none; font-file-url: none; fill: rgb(114,113,118); fill-rule: nonzero; opacity: 1;" transform=" translate(-1281.1, -657.05)" d="M 1298.2 619.3 h -57.9 c 8.3 19.8 14.5 42.6 16.1 67.9 c 0.2 2.5 0.2 5.1 0.2 7.6 h 65.3 C 1320.6 667.1 1312.1 641.4 1298.2 619.3 z" stroke-linecap="round"/>
</g>
		<g transform="matrix(1 0 0 1 579.95 256.8)" id="Capa_1">
<path style="stroke: none; stroke-width: 1; stroke-dasharray: none; stroke-linecap: butt; stroke-dashoffset: 0; stroke-linejoin: miter; stroke-miterlimit: 4; is-custom-font: none; font-file-url: none; fill: rgb(114,113,118); fill-rule: nonzero; opacity: 1;" transform=" translate(-1279.95, -746.8)" d="M 1321.8 709.3 h -65.4 c -1.3 25.2 -7.4 50.2 -18.3 75 h 60.3 C 1312.2 762.3 1320.6 736.7 1321.8 709.3 z" stroke-linecap="round"/>
</g>
		<g transform="matrix(1 0 0 1 540.8 337.2)" id="Capa_1">
<path style="stroke: none; stroke-width: 1; stroke-dasharray: none; stroke-linecap: butt; stroke-dashoffset: 0; stroke-linejoin: miter; stroke-miterlimit: 4; is-custom-font: none; font-file-url: none; fill: rgb(114,113,118); fill-rule: nonzero; opacity: 1;" transform=" translate(-1240.8, -827.2)" d="M 1231.3 798.8 c -9.8 19.1 -22.5 38.1 -38 56.8 c 38.3 -6.8 71.8 -27.5 95 -56.8 H 1231.3 z" stroke-linecap="round"/>
</g>
		<g transform="matrix(1 0 0 1 496.85 334.5)" id="Capa_1">
<path style="stroke: none; stroke-width: 1; stroke-dasharray: none; stroke-linecap: butt; stroke-dashoffset: 0; stroke-linejoin: miter; stroke-miterlimit: 4; is-custom-font: none; font-file-url: none; fill: rgb(114,113,118); fill-rule: nonzero; opacity: 1;" transform=" translate(-1196.85, -824.5)" d="M 1178.8 850.3 c 14.5 -17.1 26.5 -34.3 36.1 -51.6 h -36.1 V 850.3 z" stroke-linecap="round"/>
</g>
		<g transform="matrix(1 0 0 1 510.35 256.8)" id="Capa_1">
<path style="stroke: none; stroke-width: 1; stroke-dasharray: none; stroke-linecap: butt; stroke-dashoffset: 0; stroke-linejoin: miter; stroke-miterlimit: 4; is-custom-font: none; font-file-url: none; fill: rgb(114,113,118); fill-rule: nonzero; opacity: 1;" transform=" translate(-1210.35, -746.8)" d="M 1241.9 709.3 h -63.1 v 75 h 43.5 C 1233.9 759.4 1240.5 734.4 1241.9 709.3 z" stroke-linecap="round"/>
</g>
		<g transform="matrix(1 0 0 1 497.95 88.55)" id="Capa_1">
<path style="stroke: none; stroke-width: 1; stroke-dasharray: none; stroke-linecap: butt; stroke-dashoffset: 0; stroke-linejoin: miter; stroke-miterlimit: 4; is-custom-font: none; font-file-url: none; fill: rgb(114,113,118); fill-rule: nonzero; opacity: 1;" transform=" translate(-1197.95, -578.55)" d="M 1178.8 604.8 h 38.3 c -13.4 -24.7 -29 -42.8 -38.3 -52.5 V 604.8 z" stroke-linecap="round"/>
</g>
		<g transform="matrix(1 0 0 1 510.45 167.05)" id="Capa_1">
<path style="stroke: none; stroke-width: 1; stroke-dasharray: none; stroke-linecap: butt; stroke-dashoffset: 0; stroke-linejoin: miter; stroke-miterlimit: 4; is-custom-font: none; font-file-url: none; fill: rgb(114,113,118); fill-rule: nonzero; opacity: 1;" transform=" translate(-1210.45, -657.05)" d="M 1241.9 688.2 c -1.6 -25.8 -8.6 -49 -17.6 -68.9 h -45.5 v 75.5 h 63.3 C 1242 692.6 1242 690.4 1241.9 688.2 z" stroke-linecap="round"/>
</g>
		<g transform="matrix(1 0 0 1 396.5 337.9)" id="Capa_1">
<path style="stroke: none; stroke-width: 1; stroke-dasharray: none; stroke-linecap: butt; stroke-dashoffset: 0; stroke-linejoin: miter; stroke-miterlimit: 4; is-custom-font: none; font-file-url: none; fill: rgb(114,113,118); fill-rule: nonzero; opacity: 1;" transform=" translate(-1096.5, -827.9)" d="M 1149.3 857.1 c -16.1 -19.3 -29.2 -38.7 -39.3 -58.4 h -66.3 C 1069.1 830.7 1106.6 852.6 1149.3 857.1 z" stroke-linecap="round"/>
</g>
		<g transform="matrix(1 0 0 1 431.75 256.8)" id="Capa_1">
<path style="stroke: none; stroke-width: 1; stroke-dasharray: none; stroke-linecap: butt; stroke-dashoffset: 0; stroke-linejoin: miter; stroke-miterlimit: 4; is-custom-font: none; font-file-url: none; fill: rgb(114,113,118); fill-rule: nonzero; opacity: 1;" transform=" translate(-1131.75, -746.8)" d="M 1164.2 709.3 h -64.9 c 1.4 25.1 8 50.1 19.6 75 h 45.2 V 709.3 z" stroke-linecap="round"/>
</g>
		<g transform="matrix(1 0 0 1 431.7 167.05)" id="Capa_1">
<path style="stroke: none; stroke-width: 1; stroke-dasharray: none; stroke-linecap: butt; stroke-dashoffset: 0; stroke-linejoin: miter; stroke-miterlimit: 4; is-custom-font: none; font-file-url: none; fill: rgb(114,113,118); fill-rule: nonzero; opacity: 1;" transform=" translate(-1131.7, -657.05)" d="M 1164.2 619.3 H 1117 c -9 19.9 -16 43.1 -17.6 68.9 c -0.1 2.2 -0.1 4.4 -0.2 6.6 h 65 V 619.3 z" stroke-linecap="round"/>
</g>
		<g transform="matrix(1 0 0 1 444.2 87.65)" id="Capa_1">
<path style="stroke: none; stroke-width: 1; stroke-dasharray: none; stroke-linecap: butt; stroke-dashoffset: 0; stroke-linejoin: miter; stroke-miterlimit: 4; is-custom-font: none; font-file-url: none; fill: rgb(114,113,118); fill-rule: nonzero; opacity: 1;" transform=" translate(-1144.2, -577.65)" d="M 1164.2 550.5 c -9 9.1 -25.8 28 -40 54.3 h 40 V 550.5 z" stroke-linecap="round"/>
</g>
		<g transform="matrix(1 0 0 1 356.6 256.8)" id="Capa_1">
<path style="stroke: none; stroke-width: 1; stroke-dasharray: none; stroke-linecap: butt; stroke-dashoffset: 0; stroke-linejoin: miter; stroke-miterlimit: 4; is-custom-font: none; font-file-url: none; fill: rgb(114,113,118); fill-rule: nonzero; opacity: 1;" transform=" translate(-1056.6, -746.8)" d="M 1033.5 784.3 h 69.6 c -10.9 -24.8 -17 -49.8 -18.3 -75 h -74.7 C 1011.4 736.7 1019.8 762.3 1033.5 784.3 z" stroke-linecap="round"/>
</g>
		<g transform="matrix(1 0 0 1 395.75 86)" id="Capa_1">
<path style="stroke: none; stroke-width: 1; stroke-dasharray: none; stroke-linecap: butt; stroke-dashoffset: 0; stroke-linejoin: miter; stroke-miterlimit: 4; is-custom-font: none; font-file-url: none; fill: rgb(114,113,118); fill-rule: nonzero; opacity: 1;" transform=" translate(-1095.75, -576)" d="M 1147.3 547.2 c -41.6 5 -78.2 26.4 -103.1 57.6 h 63.5 C 1120.5 578.9 1136.2 559.3 1147.3 547.2 z" stroke-linecap="round"/>
</g>
		<g transform="matrix(1 0 0 1 445.3 335.55)" id="Capa_1">
<path style="stroke: none; stroke-width: 1; stroke-dasharray: none; stroke-linecap: butt; stroke-dashoffset: 0; stroke-linejoin: miter; stroke-miterlimit: 4; is-custom-font: none; font-file-url: none; fill: rgb(114,113,118); fill-rule: nonzero; opacity: 1;" transform=" translate(-1145.3, -825.55)" d="M 1164.2 798.8 h -37.8 c 9.9 18 22.5 35.8 37.8 53.5 V 798.8 z" stroke-linecap="round"/>
</g>
		<g transform="matrix(1 0 0 1 355.55 167.05)" id="Capa_1">
<path style="stroke: none; stroke-width: 1; stroke-dasharray: none; stroke-linecap: butt; stroke-dashoffset: 0; stroke-linejoin: miter; stroke-miterlimit: 4; is-custom-font: none; font-file-url: none; fill: rgb(114,113,118); fill-rule: nonzero; opacity: 1;" transform=" translate(-1055.55, -657.05)" d="M 1010.2 694.8 h 74.5 c 0.1 -2.5 0.1 -5.1 0.2 -7.6 c 1.5 -25.3 7.8 -48 16 -67.9 h -67.2 C 1020 641.4 1011.4 667.1 1010.2 694.8 z" stroke-linecap="round"/>
</g>
		<g transform="matrix(1 0 0 1 475 208.4)" id="Capa_1">
<path style="stroke: none; stroke-width: 1; stroke-dasharray: none; stroke-linecap: butt; stroke-dashoffset: 0; stroke-linejoin: miter; stroke-miterlimit: 4; is-custom-font: none; font-file-url: none; fill: rgb(194,195,201); fill-rule: nonzero; opacity: 1;" transform=" translate(-1175, -698.4)" d="M 1175 527.9 c -94 0 -170.5 76.5 -170.5 170.5 c 0 94 76.5 170.5 170.5 170.5 c 94 0 170.5 -76.5 170.5 -170.5 C 1345.5 604.4 1269 527.9 1175 527.9 z M 1019.2 705.6 h 74.7 c 1.3 25.2 7.4 50.2 18.3 75 h -69.6 C 1028.8 758.7 1020.4 733.1 1019.2 705.6 z M 1187.8 601.1 v -52.5 c 9.3 9.7 24.9 27.8 38.3 52.5 H 1187.8 z M 1233.3 615.7 c 9 19.9 16 43.1 17.6 68.9 c 0.1 2.2 0.1 4.4 0.2 6.6 h -63.3 v -75.5 H 1233.3 z M 1173.2 601.1 h -40 c 14.3 -26.3 31 -45.1 40 -54.3 V 601.1 z M 1173.2 615.7 v 75.5 h -65 c 0.1 -2.2 0.1 -4.4 0.2 -6.6 c 1.6 -25.8 8.6 -49 17.6 -68.9 H 1173.2 z M 1093.9 683.5 c -0.2 2.5 -0.2 5.1 -0.2 7.6 h -74.5 c 1.3 -27.6 9.8 -53.4 23.6 -75.5 h 67.2 C 1101.7 635.5 1095.5 658.3 1093.9 683.5 z M 1108.4 705.6 h 64.9 v 75 H 1128 C 1116.3 755.8 1109.8 730.7 1108.4 705.6 z M 1173.2 795.1 v 53.5 c -15.3 -17.7 -27.9 -35.6 -37.8 -53.5 H 1173.2 z M 1187.8 795.1 h 36.1 c -9.6 17.3 -21.6 34.5 -36.1 51.6 V 795.1 z M 1187.8 780.6 v -75 h 63.1 c -1.4 25.1 -8 50.1 -19.6 75 H 1187.8 z M 1265.4 705.6 h 65.4 c -1.3 27.4 -9.6 53 -23.3 75 h -60.3 C 1258 755.8 1264.2 730.8 1265.4 705.6 z M 1265.6 691.1 c -0.1 -2.5 -0.1 -5.1 -0.2 -7.6 c -1.5 -25.3 -7.8 -48 -16 -67.9 h 57.9 c 13.9 22.1 22.4 47.8 23.6 75.5 H 1265.6 z M 1296.9 601.1 h -54.2 c -12.3 -24.7 -27.2 -43.7 -38.1 -55.9 C 1241.7 552.3 1274.1 572.7 1296.9 601.1 z M 1156.3 543.5 c -11.1 12.1 -26.8 31.8 -39.7 57.6 h -63.5 C 1078.1 570 1114.7 548.5 1156.3 543.5 z M 1052.8 795.1 h 66.3 c 10.1 19.6 23.2 39.1 39.3 58.4 C 1115.6 848.9 1078.1 827.1 1052.8 795.1 z M 1202.2 852 c 15.5 -18.8 28.2 -37.7 38 -56.8 h 57 C 1274 824.4 1240.5 845.2 1202.2 852 z" stroke-linecap="round"/>
</g>
		<g transform="matrix(1 0 0 1 11.7 442.55)" id="Capa_1">
<path style="stroke: none; stroke-width: 1; stroke-dasharray: none; stroke-linecap: butt; stroke-dashoffset: 0; stroke-linejoin: miter; stroke-miterlimit: 4; is-custom-font: none; font-file-url: none; fill: rgb(114,113,118); fill-rule: nonzero; opacity: 1;" transform=" translate(-711.7, -932.55)" d="M 718.2 923.9 c 0.5 0 0.9 0.4 0.9 0.4 l -7.8 16.8 c -0.9 0 -2.9 0.1 -3.4 0.1 c -0.5 0 -0.9 -0.4 -0.9 -0.4 l -2.7 -16.8 c 1.6 0 3.7 -0.1 4.3 -0.1 c 0.5 0 0.9 0.4 0.9 0.4 l 0.8 8.2 c 0.1 0.7 0.1 1.7 0 2.7 c 0.3 -1.1 0.6 -2.2 0.8 -2.9 l 3.3 -8.3 C 715.8 924 717.6 923.9 718.2 923.9 L 718.2 923.9 z" stroke-linecap="round"/>
</g>
		<g transform="matrix(1 0 0 1 21 444.95)" id="Capa_1">
<path style="stroke: none; stroke-width: 1; stroke-dasharray: none; stroke-linecap: butt; stroke-dashoffset: 0; stroke-linejoin: miter; stroke-miterlimit: 4; is-custom-font: none; font-file-url: none; fill: rgb(114,113,118); fill-rule: nonzero; opacity: 1;" transform=" translate(-721, -934.95)" d="M 726.3 932.1 c 0 1.8 -1 3 -3.6 3.6 l -2.7 0.5 c 0.2 1.1 0.9 1.7 2.1 1.7 c 1.5 0 2.4 -1.1 2.4 -1.1 s 0.7 0.4 0.7 1.3 c 0 1.5 -2.3 3.2 -5 3.2 c -2.8 0 -4.5 -1.7 -4.5 -4.7 c 0 -3.4 2.4 -8 6.7 -8 C 724.8 928.6 726.3 930 726.3 932.1 L 726.3 932.1 z M 721.8 933.9 c 0.6 -0.2 0.7 -0.6 0.7 -1.2 c 0 -0.5 -0.2 -1.3 -0.7 -1.3 c -1.1 0 -1.5 1.7 -1.7 3 L 721.8 933.9 z" stroke-linecap="round"/>
</g>
		<g transform="matrix(1 0 0 1 31.9485 444.95)" id="Capa_1">
<path style="stroke: none; stroke-width: 1; stroke-dasharray: none; stroke-linecap: butt; stroke-dashoffset: 0; stroke-linejoin: miter; stroke-miterlimit: 4; is-custom-font: none; font-file-url: none; fill: rgb(114,113,118); fill-rule: nonzero; opacity: 1;" transform=" translate(-731.9486, -934.95)" d="M 733.4 928.6 c 2.2 0 3.8 1.1 3.8 2.6 c 0 1.9 -2.2 2.5 -2.2 2.5 s -0.7 -2 -2.2 -2 c -1 0 -1.6 1 -1.6 3.2 c 0 2 0.5 3 1.9 3 c 1.4 0 2.2 -0.9 2.2 -0.9 s 0.7 0.4 0.7 1.3 c 0 1.5 -2.2 3 -4.8 3 c -2.8 0 -4.5 -1.7 -4.5 -4.6 C 726.6 933.2 729.1 928.6 733.4 928.6 L 733.4 928.6 z" stroke-linecap="round"/>
</g>
		<g transform="matrix(1 0 0 1 42.55 443.6)" id="Capa_1">
<path style="stroke: none; stroke-width: 1; stroke-dasharray: none; stroke-linecap: butt; stroke-dashoffset: 0; stroke-linejoin: miter; stroke-miterlimit: 4; is-custom-font: none; font-file-url: none; fill: rgb(114,113,118); fill-rule: nonzero; opacity: 1;" transform=" translate(-742.55, -933.6)" d="M 743.8 925.9 c 0.5 0 0.9 0.4 0.9 0.4 l -0.4 2.6 h 2.7 l -0.6 1.9 c -0.2 0.6 -0.5 1 -1.1 1 h -1.4 l -0.8 5 c -0.1 0.8 0 1.2 0.6 1.2 c 0.5 0 1 -0.3 1 -0.3 s 0.8 0.4 0.8 1.2 c 0 1.2 -1.7 2.4 -3.9 2.4 c -2.3 0 -3.3 -1.4 -2.9 -3.9 l 0.9 -5.6 h -1.5 l 0.6 -2 c 0.2 -0.5 0.6 -0.9 1.1 -0.9 h 0.7 l 0.9 -2.4 C 742.3 926.2 743.3 925.9 743.8 925.9 L 743.8 925.9 z" stroke-linecap="round"/>
</g>
		<g transform="matrix(1 0 0 1 51.65 444.95)" id="Capa_1">
<path style="stroke: none; stroke-width: 1; stroke-dasharray: none; stroke-linecap: butt; stroke-dashoffset: 0; stroke-linejoin: miter; stroke-miterlimit: 4; is-custom-font: none; font-file-url: none; fill: rgb(114,113,118); fill-rule: nonzero; opacity: 1;" transform=" translate(-751.65, -934.95)" d="M 756.9 932.1 c 0 1.8 -1 3 -3.6 3.6 l -2.7 0.5 c 0.2 1.1 0.9 1.7 2.1 1.7 c 1.5 0 2.5 -1.1 2.5 -1.1 s 0.7 0.4 0.7 1.3 c 0 1.5 -2.3 3.2 -5 3.2 c -2.8 0 -4.5 -1.7 -4.5 -4.7 c 0 -3.4 2.4 -8 6.7 -8 C 755.5 928.6 756.9 930 756.9 932.1 L 756.9 932.1 z M 752.4 933.9 c 0.6 -0.2 0.7 -0.6 0.7 -1.2 c 0 -0.5 -0.2 -1.3 -0.7 -1.3 c -1.1 0 -1.5 1.7 -1.7 3 L 752.4 933.9 z" stroke-linecap="round"/>
</g>
		<g transform="matrix(1 0 0 1 62.55 444.95)" id="Capa_1">
<path style="stroke: none; stroke-width: 1; stroke-dasharray: none; stroke-linecap: butt; stroke-dashoffset: 0; stroke-linejoin: miter; stroke-miterlimit: 4; is-custom-font: none; font-file-url: none; fill: rgb(114,113,118); fill-rule: nonzero; opacity: 1;" transform=" translate(-762.55, -934.95)" d="M 767.8 932.1 c 0 1.8 -1 3 -3.6 3.6 l -2.7 0.5 c 0.2 1.1 0.9 1.7 2.1 1.7 c 1.5 0 2.4 -1.1 2.4 -1.1 s 0.8 0.4 0.8 1.3 c 0 1.5 -2.3 3.2 -5 3.2 c -2.8 0 -4.5 -1.7 -4.5 -4.7 c 0 -3.4 2.4 -8 6.7 -8 C 766.3 928.6 767.8 930 767.8 932.1 L 767.8 932.1 z M 763.3 933.9 c 0.6 -0.2 0.7 -0.6 0.7 -1.2 c 0 -0.5 -0.2 -1.3 -0.7 -1.3 c -1.1 0 -1.5 1.7 -1.7 3 L 763.3 933.9 z" stroke-linecap="round"/>
</g>
		<g transform="matrix(1 0 0 1 72.85 445)" id="Capa_1">
<path style="stroke: none; stroke-width: 1; stroke-dasharray: none; stroke-linecap: butt; stroke-dashoffset: 0; stroke-linejoin: miter; stroke-miterlimit: 4; is-custom-font: none; font-file-url: none; fill: rgb(114,113,118); fill-rule: nonzero; opacity: 1;" transform=" translate(-772.85, -935)" d="M 776.7 936.7 c 0 0 0.9 0.8 0.9 2.2 c 0 1.9 -1.6 2.4 -2.9 2.4 c -1.7 0 -3 -0.8 -4.3 -1.3 c -0.4 0.4 -0.7 0.8 -1.1 1.3 c 0 0 -1.9 0 -1.9 -1.4 c 0 -1.6 2.7 -4.4 5.6 -7.5 c -0.3 -0.1 -0.7 -0.1 -0.9 -0.1 c -1.6 0 -2.3 0.8 -2.3 0.8 s -0.8 -1 -0.8 -2.2 c 0.1 -1.8 1.8 -2.2 3.1 -2.2 c 1.4 0 2.4 0.5 3.4 1 l 0.8 -1 c 0 0 2 0.1 2 1.4 c 0 1.6 -2.6 4.3 -5.4 7.3 c 0.6 0.2 1.2 0.3 1.7 0.3 C 776 937.6 776.7 936.7 776.7 936.7 L 776.7 936.7 z" stroke-linecap="round"/>
</g>
		<g transform="matrix(1 0 0 1 84.45 447.45)" id="Capa_1">
<path style="stroke: none; stroke-width: 1; stroke-dasharray: none; stroke-linecap: butt; stroke-dashoffset: 0; stroke-linejoin: miter; stroke-miterlimit: 4; is-custom-font: none; font-file-url: none; fill: rgb(114,113,118); fill-rule: nonzero; opacity: 1;" transform=" translate(-784.45, -937.45)" d="M 789.3 940.2 c -0.7 4.3 -3.6 6.4 -7.3 6.4 c -2.4 0 -4.1 -1.2 -4.1 -2.7 c 0 -0.9 0.8 -1.4 0.8 -1.4 s 0.8 0.7 2.4 0.7 c 1.5 0 3.5 -0.6 3.9 -2.9 l 0.3 -1.7 c -1 1.4 -2.3 2.6 -4 2.6 c -1.9 0 -2.7 -1.5 -2.2 -4.7 l 0.5 -3.4 c 0.3 -2.1 0.4 -3.8 0.4 -3.8 c 1.3 -0.2 3.1 -0.9 3.7 -0.9 c 0.5 0 0.9 0.4 0.9 0.4 l -0.7 4.2 l -0.6 3.9 c -0.1 0.4 0 0.6 0.3 0.6 c 1.6 0 2.4 -4.5 2.4 -4.5 c 0.3 -2.1 0.4 -3.8 0.4 -3.8 c 1.3 -0.2 3.1 -0.9 3.7 -0.9 c 0.5 0 0.9 0.4 0.9 0.4 l -0.7 4.2 L 789.3 940.2 z" stroke-linecap="round"/>
</g>
		<g transform="matrix(1 0 0 1 -86.3 444.9)" id="Capa_1">
<path style="stroke: none; stroke-width: 1; stroke-dasharray: none; stroke-linecap: butt; stroke-dashoffset: 0; stroke-linejoin: miter; stroke-miterlimit: 4; is-custom-font: none; font-file-url: none; fill: rgb(114,113,118); fill-rule: nonzero; opacity: 1;" transform=" translate(-613.7, -934.9)" d="M 608.9 929.3 h 4.2 c 0.9 0 1.7 0.1 2.2 0.2 c 0.7 0.2 1.2 0.5 1.7 1 c 0.5 0.5 0.8 1.1 1.1 1.8 c 0.2 0.7 0.4 1.6 0.4 2.7 c 0 0.9 -0.1 1.7 -0.3 2.4 c -0.3 0.8 -0.7 1.5 -1.2 2 c -0.4 0.4 -0.9 0.7 -1.6 0.9 c -0.5 0.2 -1.2 0.2 -2 0.2 h -4.3 V 929.3 z M 611.2 931.2 v 7.5 h 1.7 c 0.6 0 1.1 0 1.4 -0.1 c 0.4 -0.1 0.7 -0.3 0.9 -0.5 c 0.2 -0.2 0.4 -0.6 0.6 -1.1 c 0.2 -0.5 0.2 -1.2 0.2 -2.1 c 0 -0.9 -0.1 -1.6 -0.2 -2 c -0.2 -0.5 -0.4 -0.8 -0.7 -1.1 c -0.3 -0.3 -0.6 -0.4 -1.1 -0.5 c -0.3 -0.1 -0.9 -0.1 -1.9 -0.1 H 611.2 z" stroke-linecap="round"/>
</g>
		<g transform="matrix(1 0 0 1 -76.75 446.5)" id="Capa_1">
<path style="stroke: none; stroke-width: 1; stroke-dasharray: none; stroke-linecap: butt; stroke-dashoffset: 0; stroke-linejoin: miter; stroke-miterlimit: 4; is-custom-font: none; font-file-url: none; fill: rgb(114,113,118); fill-rule: nonzero; opacity: 1;" transform=" translate(-623.25, -936.5)" d="M 624.8 938 l 2.2 0.4 c -0.3 0.8 -0.7 1.4 -1.3 1.8 c -0.6 0.4 -1.4 0.6 -2.3 0.6 c -1.4 0 -2.5 -0.5 -3.2 -1.4 c -0.5 -0.7 -0.8 -1.7 -0.8 -2.8 c 0 -1.4 0.4 -2.4 1.1 -3.2 c 0.7 -0.8 1.6 -1.2 2.7 -1.2 c 1.2 0 2.2 0.4 2.9 1.2 c 0.7 0.8 1 2 1 3.7 h -5.5 c 0 0.6 0.2 1.1 0.5 1.5 c 0.3 0.4 0.8 0.5 1.3 0.5 c 0.3 0 0.6 -0.1 0.9 -0.3 C 624.5 938.8 624.7 938.5 624.8 938 z M 624.9 935.8 c 0 -0.6 -0.2 -1.1 -0.5 -1.4 c -0.3 -0.3 -0.7 -0.5 -1.1 -0.5 c -0.5 0 -0.9 0.2 -1.2 0.5 c -0.3 0.3 -0.5 0.8 -0.5 1.4 H 624.9 z" stroke-linecap="round"/>
</g>
		<g transform="matrix(1 0 0 1 -68.35 446.4)" id="Capa_1">
<path style="stroke: none; stroke-width: 1; stroke-dasharray: none; stroke-linecap: butt; stroke-dashoffset: 0; stroke-linejoin: miter; stroke-miterlimit: 4; is-custom-font: none; font-file-url: none; fill: rgb(114,113,118); fill-rule: nonzero; opacity: 1;" transform=" translate(-631.65, -936.4)" d="M 627.8 938.3 l 2.2 -0.3 c 0.1 0.4 0.3 0.7 0.6 1 c 0.3 0.2 0.7 0.3 1.2 0.3 c 0.6 0 1 -0.1 1.3 -0.3 c 0.2 -0.1 0.3 -0.3 0.3 -0.6 c 0 -0.2 -0.1 -0.3 -0.2 -0.4 c -0.1 -0.1 -0.4 -0.2 -0.7 -0.3 c -1.8 -0.4 -2.9 -0.7 -3.3 -1.1 c -0.7 -0.4 -1 -1.1 -1 -1.9 c 0 -0.7 0.3 -1.3 0.8 -1.8 c 0.6 -0.5 1.4 -0.7 2.6 -0.7 c 1.1 0 2 0.2 2.5 0.5 c 0.5 0.4 0.9 0.9 1.1 1.6 l -2.1 0.4 c -0.1 -0.3 -0.3 -0.6 -0.5 -0.7 c -0.2 -0.2 -0.6 -0.3 -1 -0.3 c -0.6 0 -1 0.1 -1.2 0.2 c -0.2 0.1 -0.2 0.3 -0.2 0.4 c 0 0.2 0.1 0.3 0.2 0.4 c 0.2 0.1 0.9 0.3 2 0.6 c 1.2 0.3 2 0.6 2.4 1 c 0.5 0.4 0.7 0.9 0.7 1.6 c 0 0.8 -0.3 1.4 -0.9 1.9 c -0.6 0.5 -1.6 0.8 -2.8 0.8 c -1.1 0 -2 -0.2 -2.7 -0.7 C 628.4 939.7 628 939.1 627.8 938.3 z" stroke-linecap="round"/>
</g>
		<g transform="matrix(1 0 0 1 -61.9 445)" id="Capa_1">
<path style="stroke: none; stroke-width: 1; stroke-dasharray: none; stroke-linecap: butt; stroke-dashoffset: 0; stroke-linejoin: miter; stroke-miterlimit: 4; is-custom-font: none; font-file-url: none; fill: rgb(114,113,118); fill-rule: nonzero; opacity: 1;" transform=" translate(-638.1, -935)" d="M 637 931.3 v -2 h 2.2 v 2 H 637 z M 637 940.7 v -8.2 h 2.2 v 8.2 H 637 z" stroke-linecap="round"/>
</g>
		<g transform="matrix(1 0 0 1 -55.4 447.9)" id="Capa_1">
<path style="stroke: none; stroke-width: 1; stroke-dasharray: none; stroke-linecap: butt; stroke-dashoffset: 0; stroke-linejoin: miter; stroke-miterlimit: 4; is-custom-font: none; font-file-url: none; fill: rgb(114,113,118); fill-rule: nonzero; opacity: 1;" transform=" translate(-644.6, -937.9)" d="M 640.9 941.2 l 2.5 0.3 c 0 0.3 0.1 0.5 0.3 0.6 c 0.2 0.2 0.5 0.2 1 0.2 c 0.6 0 1 -0.1 1.3 -0.3 c 0.2 -0.1 0.3 -0.3 0.4 -0.5 c 0.1 -0.2 0.1 -0.5 0.1 -1 v -1.2 c -0.7 0.9 -1.5 1.3 -2.5 1.3 c -1.1 0 -2 -0.5 -2.6 -1.4 c -0.5 -0.7 -0.8 -1.7 -0.8 -2.8 c 0 -1.4 0.3 -2.4 1 -3.2 s 1.5 -1.1 2.5 -1.1 c 1 0 1.9 0.4 2.5 1.3 v -1.2 h 2 v 7.4 c 0 1 -0.1 1.7 -0.2 2.2 c -0.2 0.5 -0.4 0.9 -0.7 1.1 c -0.3 0.3 -0.7 0.5 -1.2 0.6 c -0.5 0.2 -1.1 0.2 -1.8 0.2 c -1.4 0 -2.4 -0.2 -3 -0.7 c -0.6 -0.5 -0.9 -1.1 -0.9 -1.8 C 640.9 941.4 640.9 941.3 640.9 941.2 z M 642.9 936.4 c 0 0.9 0.2 1.5 0.5 1.9 c 0.3 0.4 0.8 0.6 1.3 0.6 c 0.5 0 1 -0.2 1.3 -0.6 c 0.4 -0.4 0.5 -1 0.5 -1.8 c 0 -0.9 -0.2 -1.5 -0.5 -1.9 c -0.4 -0.4 -0.8 -0.6 -1.3 -0.6 c -0.5 0 -1 0.2 -1.3 0.6 C 643 934.9 642.9 935.5 642.9 936.4 z" stroke-linecap="round"/>
</g>
		<g transform="matrix(1 0 0 1 -45.8 446.5)" id="Capa_1">
<path style="stroke: none; stroke-width: 1; stroke-dasharray: none; stroke-linecap: butt; stroke-dashoffset: 0; stroke-linejoin: miter; stroke-miterlimit: 4; is-custom-font: none; font-file-url: none; fill: rgb(114,113,118); fill-rule: nonzero; opacity: 1;" transform=" translate(-654.2, -936.5)" d="M 658 940.7 h -2.2 v -4.2 c 0 -0.9 0 -1.5 -0.1 -1.7 c -0.1 -0.3 -0.2 -0.5 -0.5 -0.6 c -0.2 -0.1 -0.5 -0.2 -0.8 -0.2 c -0.4 0 -0.7 0.1 -1 0.3 c -0.3 0.2 -0.5 0.5 -0.6 0.8 c -0.1 0.3 -0.2 1 -0.2 1.9 v 3.7 h -2.2 v -8.2 h 2 v 1.2 c 0.7 -0.9 1.6 -1.4 2.7 -1.4 c 0.5 0 0.9 0.1 1.3 0.3 c 0.4 0.2 0.7 0.4 0.9 0.7 c 0.2 0.3 0.3 0.6 0.4 0.9 c 0.1 0.3 0.1 0.8 0.1 1.5 V 940.7 z" stroke-linecap="round"/>
</g>
		<g transform="matrix(1 0 0 1 -36.95 446.5)" id="Capa_1">
<path style="stroke: none; stroke-width: 1; stroke-dasharray: none; stroke-linecap: butt; stroke-dashoffset: 0; stroke-linejoin: miter; stroke-miterlimit: 4; is-custom-font: none; font-file-url: none; fill: rgb(114,113,118); fill-rule: nonzero; opacity: 1;" transform=" translate(-663.05, -936.5)" d="M 664.6 938 l 2.2 0.4 c -0.3 0.8 -0.7 1.4 -1.3 1.8 c -0.6 0.4 -1.4 0.6 -2.3 0.6 c -1.4 0 -2.5 -0.5 -3.2 -1.4 c -0.5 -0.7 -0.8 -1.7 -0.8 -2.8 c 0 -1.4 0.4 -2.4 1.1 -3.2 c 0.7 -0.8 1.6 -1.2 2.7 -1.2 c 1.2 0 2.2 0.4 2.9 1.2 c 0.7 0.8 1 2 1 3.7 h -5.5 c 0 0.6 0.2 1.1 0.5 1.5 c 0.3 0.4 0.8 0.5 1.3 0.5 c 0.3 0 0.6 -0.1 0.9 -0.3 C 664.3 938.8 664.5 938.5 664.6 938 z M 664.8 935.8 c 0 -0.6 -0.2 -1.1 -0.5 -1.4 c -0.3 -0.3 -0.7 -0.5 -1.1 -0.5 c -0.5 0 -0.9 0.2 -1.2 0.5 c -0.3 0.3 -0.5 0.8 -0.5 1.4 H 664.8 z" stroke-linecap="round"/>
</g>
		<g transform="matrix(1 0 0 1 -28.05 445)" id="Capa_1">
<path style="stroke: none; stroke-width: 1; stroke-dasharray: none; stroke-linecap: butt; stroke-dashoffset: 0; stroke-linejoin: miter; stroke-miterlimit: 4; is-custom-font: none; font-file-url: none; fill: rgb(114,113,118); fill-rule: nonzero; opacity: 1;" transform=" translate(-671.95, -935)" d="M 675.9 940.7 h -2 v -1.2 c -0.3 0.5 -0.7 0.8 -1.2 1 c -0.5 0.2 -0.9 0.3 -1.4 0.3 c -0.9 0 -1.8 -0.4 -2.4 -1.1 c -0.7 -0.8 -1 -1.8 -1 -3.2 c 0 -1.4 0.3 -2.5 1 -3.2 c 0.7 -0.7 1.5 -1.1 2.5 -1.1 c 0.9 0 1.7 0.4 2.4 1.1 v -4.1 h 2.2 V 940.7 z M 670.1 936.4 c 0 0.9 0.1 1.5 0.4 1.9 c 0.4 0.6 0.8 0.9 1.5 0.9 c 0.5 0 0.9 -0.2 1.3 -0.6 c 0.4 -0.4 0.5 -1.1 0.5 -1.9 c 0 -0.9 -0.2 -1.6 -0.5 -2 c -0.3 -0.4 -0.8 -0.6 -1.3 -0.6 c -0.5 0 -0.9 0.2 -1.3 0.6 C 670.3 934.9 670.1 935.5 670.1 936.4 z" stroke-linecap="round"/>
</g>
		<g transform="matrix(1 0 0 1 -14.25 445.05)" id="Capa_1">
<path style="stroke: none; stroke-width: 1; stroke-dasharray: none; stroke-linecap: butt; stroke-dashoffset: 0; stroke-linejoin: miter; stroke-miterlimit: 4; is-custom-font: none; font-file-url: none; fill: rgb(114,113,118); fill-rule: nonzero; opacity: 1;" transform=" translate(-685.75, -935.05)" d="M 681.7 940.7 v -11.4 h 2.2 v 4.1 c 0.7 -0.8 1.5 -1.1 2.4 -1.1 c 1 0 1.8 0.4 2.5 1.1 c 0.7 0.7 1 1.8 1 3.1 c 0 1.4 -0.3 2.5 -1 3.2 c -0.7 0.8 -1.5 1.1 -2.4 1.1 c -0.5 0 -0.9 -0.1 -1.4 -0.4 c -0.5 -0.2 -0.9 -0.6 -1.2 -1 v 1.2 H 681.7 z M 683.9 936.4 c 0 0.9 0.1 1.5 0.4 1.9 c 0.4 0.6 0.9 0.9 1.5 0.9 c 0.5 0 0.9 -0.2 1.2 -0.6 c 0.3 -0.4 0.5 -1.1 0.5 -1.9 c 0 -0.9 -0.2 -1.6 -0.5 -2 s -0.8 -0.6 -1.3 -0.6 c -0.5 0 -1 0.2 -1.3 0.6 S 683.9 935.5 683.9 936.4 z" stroke-linecap="round"/>
</g>
		<g transform="matrix(1 0 0 1 -5.55 448.15)" id="Capa_1">
<path style="stroke: none; stroke-width: 1; stroke-dasharray: none; stroke-linecap: butt; stroke-dashoffset: 0; stroke-linejoin: miter; stroke-miterlimit: 4; is-custom-font: none; font-file-url: none; fill: rgb(114,113,118); fill-rule: nonzero; opacity: 1;" transform=" translate(-694.45, -938.15)" d="M 690.2 932.4 h 2.3 l 2 5.8 l 1.9 -5.8 h 2.3 l -2.9 7.9 l -0.5 1.4 c -0.2 0.5 -0.4 0.8 -0.5 1.1 c -0.2 0.3 -0.4 0.5 -0.6 0.6 c -0.2 0.2 -0.5 0.3 -0.8 0.4 c -0.3 0.1 -0.7 0.1 -1.1 0.1 c -0.4 0 -0.8 0 -1.2 -0.1 l -0.2 -1.7 c 0.3 0.1 0.6 0.1 0.9 0.1 c 0.5 0 0.9 -0.1 1.1 -0.4 c 0.2 -0.3 0.4 -0.7 0.6 -1.1 L 690.2 932.4 z" stroke-linecap="round"/>
</g>
</g>
</g>
</svg>