<svg width="500" height="500" viewBox="0 0 500 500" fill="none" xmlns="http://www.w3.org/2000/svg">
<circle cx="249.11" cy="250.11" r="165" transform="rotate(19.8134 249.11 250.11)" fill="white"/>
<path fill-rule="evenodd" clip-rule="evenodd" d="M317.691 99.8928C234.773 74.0717 145.132 117.227 114.269 199.572C83.4068 281.917 122.601 373.36 202.065 408.399C199.058 407.462 196.061 406.435 193.075 405.316C107.744 373.335 64.4963 278.235 96.4778 192.904C128.459 107.573 223.56 64.3254 308.89 96.3069C311.876 97.426 314.81 98.6223 317.691 99.8928Z" fill="#BFBFBF"/>
<path fill-rule="evenodd" clip-rule="evenodd" d="M323.31 101.999C240.391 76.1774 150.75 119.333 119.888 201.678C89.0252 284.023 128.22 375.465 207.683 410.504C204.677 409.568 201.679 408.541 198.693 407.422C113.363 375.441 70.1147 280.34 102.096 195.01C134.078 109.679 229.178 66.4312 314.508 98.4127C317.494 99.5317 320.429 100.728 323.31 101.999Z" fill="#BFBFBF"/>
<path fill-rule="evenodd" clip-rule="evenodd" d="M323.31 101.999C240.391 76.1774 150.75 119.333 119.888 201.678C89.0252 284.023 128.22 375.465 207.683 410.504C204.677 409.568 201.679 408.541 198.693 407.422C113.363 375.441 70.1147 280.34 102.096 195.01C134.078 109.679 229.178 66.4312 314.508 98.4127C317.494 99.5317 320.429 100.728 323.31 101.999Z" fill="#BFBFBF"/>
<path fill-rule="evenodd" clip-rule="evenodd" d="M315.819 99.1909C232.9 73.3698 143.259 116.525 112.396 198.87C81.5341 281.215 120.729 372.658 200.192 407.697C197.186 406.76 194.188 405.734 191.202 404.614C105.872 372.633 62.6235 277.533 94.605 192.202C126.587 106.872 221.687 63.6235 307.017 95.605C310.003 96.7241 312.937 97.9204 315.819 99.1909Z" fill="#BFBFBF"/>
<path fill-rule="evenodd" clip-rule="evenodd" d="M98.3682 205.503C88.3766 245.56 141.04 300.023 219.437 329.368C297.833 358.713 373.315 352.218 392.082 315.446C391.72 316.898 391.275 318.332 390.746 319.745C375.634 360.118 297.525 368.195 216.286 337.786C135.047 307.377 81.4404 249.996 96.553 209.622C97.0818 208.21 97.6877 206.836 98.3682 205.503Z" fill="#BFBFBF"/>
<path fill-rule="evenodd" clip-rule="evenodd" d="M98.371 205.505C95.6831 226.221 154.913 265.626 234.308 295.345C313.703 325.064 384.249 334.237 395.825 316.848C395.727 317.599 395.548 318.325 395.286 319.026C387.791 339.05 315.019 330.316 232.745 299.52C150.472 268.723 89.8516 227.525 97.3468 207.502C97.6091 206.801 97.9513 206.135 98.371 205.505Z" fill="#BFBFBF"/>
<path fill-rule="evenodd" clip-rule="evenodd" d="M104.105 173.482C101.525 194.238 162.336 234.235 243.666 264.678C324.995 295.122 397.123 304.886 408.806 287.538C408.713 288.29 408.536 289.018 408.274 289.718C400.779 309.742 326.381 300.4 242.103 268.853C157.825 237.306 95.5795 195.5 103.075 175.476C103.337 174.776 103.681 174.111 104.105 173.482Z" fill="#BFBFBF"/>
<path fill-rule="evenodd" clip-rule="evenodd" d="M105.919 174.242C120.267 149.863 194.911 154.199 276.761 184.837C358.61 215.475 417.755 261.218 412.568 289.027C413.089 288.143 413.53 287.221 413.889 286.262C424.154 258.837 363.718 210.868 278.901 179.119C194.084 147.37 117.004 143.865 106.738 171.289C106.379 172.249 106.107 173.234 105.919 174.242Z" fill="#BFBFBF"/>
<path fill-rule="evenodd" clip-rule="evenodd" d="M306.923 95.8568C333.345 111.016 330.456 186.686 299.593 269.031C268.731 351.375 221.173 410.304 191.297 404.363C192.255 404.912 193.251 405.382 194.286 405.77C223.871 416.859 273.78 356.673 305.761 271.343C337.743 186.012 339.686 107.849 310.102 96.761C309.066 96.373 308.006 96.0723 306.923 95.8568Z" fill="#BFBFBF"/>
<path fill-rule="evenodd" clip-rule="evenodd" d="M316.755 99.5419C284.552 92.7286 235.149 150.965 204.286 233.31C173.424 315.655 172.38 392.017 201.129 408.048C199.961 407.801 198.816 407.468 197.695 407.048C165.666 395.044 165.627 316.138 197.608 230.807C229.59 145.477 281.481 86.0341 313.51 98.0386C314.631 98.4586 315.713 98.9606 316.755 99.5419Z" fill="#BFBFBF"/>
<path fill-rule="evenodd" clip-rule="evenodd" d="M306.923 95.8568C353.585 118.602 366.753 200.29 335.891 282.635C305.029 364.98 241.413 417.89 191.297 404.363C192.988 405.187 194.724 405.935 196.504 406.602C247.36 425.662 314.513 371.94 346.495 286.609C378.476 201.278 363.175 116.653 312.319 97.5921C310.54 96.9251 308.74 96.3473 306.923 95.8568Z" fill="#BFBFBF"/>
<path fill-rule="evenodd" clip-rule="evenodd" d="M308.796 96.5587C384.77 130.29 421.196 220.695 390.333 303.04C359.471 385.384 272.598 429.578 193.169 405.065C195.924 406.288 198.731 407.436 201.588 408.507C283.251 439.114 375.379 394.752 407.36 309.421C439.342 224.091 399.067 130.105 317.404 99.4977C314.546 98.4267 311.676 97.4476 308.796 96.5587Z" fill="#BFBFBF"/>
<path fill-rule="evenodd" clip-rule="evenodd" d="M306.923 95.8568C262.855 84.5968 204.039 139.305 173.176 221.65C142.314 303.995 150.684 383.885 191.297 404.363C189.699 403.954 188.12 403.459 186.563 402.876C142.064 386.198 131.917 303.503 163.898 218.173C195.88 132.842 257.879 77.1883 302.378 93.8663C303.935 94.4499 305.45 95.1143 306.923 95.8568Z" fill="#BFBFBF"/>
</svg>
