<svg width="500" height="500" viewBox="0 0 500 500" fill="none" xmlns="http://www.w3.org/2000/svg">
<g clip-path="url(#clip0_2_54)">
<path fill-rule="evenodd" clip-rule="evenodd" d="M125 213C125 195.327 139.327 181 157 181H343C360.673 181 375 195.327 375 213V399C375 416.673 360.673 431 343 431H157C139.327 431 125 416.673 125 399V213ZM211 407V309C211 286.909 228.909 269 251 269C273.091 269 291 286.909 291 309V407H211Z" fill="white"/>
<path d="M228.247 64.9444C240.425 52.3877 260.575 52.3877 272.753 64.9445L401.719 197.918C420.788 217.579 406.856 250.5 379.466 250.5H121.534C94.1441 250.5 80.2118 217.579 99.281 197.918L228.247 64.9444Z" fill="#FFFEFE"/>
<path fill-rule="evenodd" clip-rule="evenodd" d="M272.018 90.4175C259.839 77.8608 239.69 77.8608 227.512 90.4176L133.809 187.032C114.74 206.693 128.672 239.614 156.062 239.614H167.793C146.539 233.452 137.566 205.699 154.411 188.294L227.488 112.783C239.671 100.194 259.858 100.194 272.041 112.783L345.119 188.294C361.963 205.699 352.99 233.452 331.736 239.614H343.467C370.857 239.614 384.79 206.693 365.72 187.032L272.018 90.4175Z" fill="#989898"/>
<path fill-rule="evenodd" clip-rule="evenodd" d="M204 311C204.268 285.549 224.983 265 250.497 265C276.012 265 296.727 285.549 296.995 311H290.985C290.454 289.371 272.754 272 250.997 272C229.24 272 211.54 289.371 211.01 311H204Z" fill="#7C7A7A"/>
<path fill-rule="evenodd" clip-rule="evenodd" d="M211 311H204V410H297V311H291V404H211V311Z" fill="#7C7A7A"/>
<circle cx="333.5" cy="343.5" r="17.5" fill="#7C7A7A"/>
<circle cx="348.5" cy="388.5" r="13.5" fill="#A2A2A2"/>
<circle cx="324.5" cy="411.5" r="19.5" fill="#A2A2A2"/>
<circle cx="353.5" cy="410.5" r="18.5" fill="#A2A2A2"/>
<circle cx="348.5" cy="395.5" r="13.5" fill="#A2A2A2"/>
<circle cx="380" cy="409" r="17" fill="#A2A2A2"/>
<circle cx="335" cy="399" r="17" fill="#A2A2A2"/>
<circle cx="362.5" cy="395.5" r="13.5" fill="#A2A2A2"/>
<rect x="104" y="412" width="311" height="20" fill="#D9D9D9"/>
</g>
<defs>
<clipPath id="clip0_2_54">
<rect width="500" height="500" fill="white"/>
</clipPath>
</defs>
</svg>
