<svg width="500" height="500" viewBox="0 0 500 500" fill="none" xmlns="http://www.w3.org/2000/svg">
<rect width="500" height="500" fill="#F5F5F5"/>
<rect x="56" y="50" width="80" height="80" fill="#1B1A1A"/>
<rect x="56" y="290" width="80" height="80" fill="#1B1A1A"/>
<rect x="136" y="290" width="80" height="80" fill="#1B1A1A"/>
<rect x="216" y="370" width="80" height="80" fill="#1B1A1A"/>
<rect x="216" y="290" width="80" height="80" fill="#1B1A1A"/>
<rect x="363" y="370" width="80" height="80" fill="#1B1A1A"/>
<rect x="363" y="290" width="80" height="80" fill="#1B1A1A"/>
<rect x="363" y="210" width="80" height="80" fill="#1B1A1A"/>
<rect x="363" y="130" width="80" height="80" fill="#1B1A1A"/>
<rect x="363" y="50" width="80" height="80" fill="#1B1A1A"/>
<rect x="283" y="50" width="80" height="80" fill="#1B1A1A"/>
<rect x="216" y="216" width="80" height="80" fill="#1B1A1A"/>
<rect x="176" y="170" width="80" height="80" fill="#1B1A1A"/>
<rect x="136" y="130" width="80" height="80" fill="#1B1A1A"/>
<rect x="96" y="90" width="80" height="80" fill="#1B1A1A"/>
<path fill-rule="evenodd" clip-rule="evenodd" d="M475 475.666L25 475L25.666 25L475.666 25.666L475 475.666ZM467 467.643L32 467L32.6438 32L467.643 32.6438L467 467.643Z" fill="url(#paint0_linear_0_1)"/>
<defs>
<linearGradient id="paint0_linear_0_1" x1="750.5" y1="-477" x2="4.49997" y2="554.5" gradientUnits="userSpaceOnUse">
<stop offset="0.125612" stop-color="white" stop-opacity="0"/>
<stop offset="0.980302"/>
</linearGradient>
</defs>
</svg>
