<svg width="500" height="500" viewBox="0 0 500 500" fill="none" xmlns="http://www.w3.org/2000/svg">
<rect width="500" height="500" fill="#F5F5F5"/>
<g filter="url(#filter0_d_0_1)">
<rect width="500" height="500" fill="url(#paint0_linear_0_1)" shape-rendering="crispEdges"/>
</g>
<rect x="56" y="50" width="80" height="80" fill="#D9D9D9"/>
<rect x="56" y="290" width="80" height="80" fill="#D9D9D9"/>
<rect x="136" y="290" width="80" height="80" fill="#D9D9D9"/>
<rect x="216" y="370" width="80" height="80" fill="#D9D9D9"/>
<rect x="216" y="290" width="80" height="80" fill="#D9D9D9"/>
<rect x="363" y="370" width="80" height="80" fill="#D9D9D9"/>
<rect x="363" y="290" width="80" height="80" fill="#D9D9D9"/>
<rect x="363" y="210" width="80" height="80" fill="#D9D9D9"/>
<rect x="363" y="130" width="80" height="80" fill="#D9D9D9"/>
<rect x="363" y="50" width="80" height="80" fill="#D9D9D9"/>
<rect x="283" y="50" width="80" height="80" fill="#D9D9D9"/>
<rect x="216" y="216" width="80" height="80" fill="#D9D9D9"/>
<rect x="176" y="170" width="80" height="80" fill="#D9D9D9"/>
<rect x="136" y="130" width="80" height="80" fill="#D9D9D9"/>
<rect x="96" y="90" width="80" height="80" fill="#D9D9D9"/>
<defs>
<filter id="filter0_d_0_1" x="-4" y="0" width="508" height="508" filterUnits="userSpaceOnUse" color-interpolation-filters="sRGB">
<feFlood flood-opacity="0" result="BackgroundImageFix"/>
<feColorMatrix in="SourceAlpha" type="matrix" values="0 0 0 0 0 0 0 0 0 0 0 0 0 0 0 0 0 0 127 0" result="hardAlpha"/>
<feOffset dy="4"/>
<feGaussianBlur stdDeviation="2"/>
<feComposite in2="hardAlpha" operator="out"/>
<feColorMatrix type="matrix" values="0 0 0 0 0 0 0 0 0 0 0 0 0 0 0 0 0 0 0.25 0"/>
<feBlend mode="normal" in2="BackgroundImageFix" result="effect1_dropShadow_0_1"/>
<feBlend mode="normal" in="SourceGraphic" in2="effect1_dropShadow_0_1" result="shape"/>
</filter>
<linearGradient id="paint0_linear_0_1" x1="8.00001" y1="505" x2="1461" y2="-827" gradientUnits="userSpaceOnUse">
<stop offset="0.0102215" stop-color="#020202"/>
<stop offset="1" stop-color="white" stop-opacity="0"/>
</linearGradient>
</defs>
</svg>
