<svg width="900" height="500" viewBox="0 0 900 500" fill="none" xmlns="http://www.w3.org/2000/svg">
<rect width="900" height="500" fill="#F5F5F5"/>
<rect width="900" height="500" fill="url(#paint0_linear_0_1)"/>
<rect x="305" y="50" width="80" height="80" fill="#E9E9E9"/>
<rect x="305" y="290" width="80" height="80" fill="#E9E9E9"/>
<rect x="385" y="290" width="80" height="80" fill="#E9E9E9"/>
<rect x="465" y="370" width="80" height="80" fill="#E9E9E9"/>
<rect x="465" y="290" width="80" height="80" fill="#E9E9E9"/>
<rect x="612" y="370" width="80" height="80" fill="#E9E9E9"/>
<rect x="612" y="290" width="80" height="80" fill="#E9E9E9"/>
<rect x="612" y="210" width="80" height="80" fill="#E9E9E9"/>
<rect x="612" y="130" width="80" height="80" fill="#E9E9E9"/>
<rect x="612" y="50" width="80" height="80" fill="#E9E9E9"/>
<rect x="532" y="50" width="80" height="80" fill="#E9E9E9"/>
<rect x="692" y="50" width="80" height="80" fill="#E9E9E9"/>
<rect x="465" y="216" width="80" height="80" fill="#E9E9E9"/>
<rect x="425" y="170" width="80" height="80" fill="#E9E9E9"/>
<rect x="385" y="130" width="80" height="80" fill="#E9E9E9"/>
<rect x="339" y="90" width="80" height="80" fill="#E9E9E9"/>
<rect x="305" y="50" width="80" height="80" fill="#E9E9E9"/>
<rect width="80" height="80" transform="matrix(-1 0 0 1 379 50)" fill="#E9E9E9"/>
<rect width="80" height="80" transform="matrix(-1 0 0 1 219 216)" fill="#E9E9E9"/>
<rect width="80" height="80" transform="matrix(-1 0 0 1 259 170)" fill="#E9E9E9"/>
<rect width="80" height="80" transform="matrix(-1 0 0 1 299 130)" fill="#E9E9E9"/>
<rect width="80" height="80" transform="matrix(-1 0 0 1 339 90)" fill="#E9E9E9"/>
<rect width="80" height="80" transform="matrix(-1 0 0 1 379 50)" fill="#E9E9E9"/>
<path d="M139 370H219V450H139V370Z" fill="#E9E9E9"/>
<rect x="225" y="290" width="80" height="80" fill="#E9E9E9"/>
<rect width="88" height="80" transform="matrix(-1 0 0 1 227 290)" fill="#E9E9E9"/>
<defs>
<linearGradient id="paint0_linear_0_1" x1="-17" y1="621" x2="2141" y2="-964" gradientUnits="userSpaceOnUse">
<stop/>
<stop offset="1" stop-color="white" stop-opacity="0"/>
</linearGradient>
</defs>
</svg>
