<svg width="500" height="500" viewBox="0 0 500 500" fill="none" xmlns="http://www.w3.org/2000/svg">
<rect width="500" height="500" fill="#F5F5F5"/>
<rect width="500" height="500" fill="#3E3C3C"/>
<rect x="56" y="50" width="80" height="80" fill="#D9D9D9"/>
<rect x="56" y="290" width="80" height="80" fill="#D9D9D9"/>
<rect x="136" y="290" width="80" height="80" fill="#D9D9D9"/>
<rect x="216" y="370" width="80" height="80" fill="#D9D9D9"/>
<rect x="216" y="290" width="80" height="80" fill="#D9D9D9"/>
<rect x="363" y="370" width="80" height="80" fill="#D9D9D9"/>
<rect x="363" y="290" width="80" height="80" fill="#D9D9D9"/>
<rect x="363" y="210" width="80" height="80" fill="#D9D9D9"/>
<rect x="363" y="130" width="80" height="80" fill="#D9D9D9"/>
<rect x="363" y="50" width="80" height="80" fill="#D9D9D9"/>
<rect x="283" y="50" width="80" height="80" fill="#D9D9D9"/>
<rect x="216" y="216" width="80" height="80" fill="#D9D9D9"/>
<rect x="176" y="170" width="80" height="80" fill="#D9D9D9"/>
<rect x="136" y="130" width="80" height="80" fill="#D9D9D9"/>
<rect x="96" y="90" width="80" height="80" fill="#D9D9D9"/>
</svg>
