<svg width="971" height="512" viewBox="0 0 971 512" fill="none" xmlns="http://www.w3.org/2000/svg">
<rect x="681" y="382" width="80" height="80" fill="#02010B" fill-opacity="0.905882"/>
<rect x="681" y="302" width="80" height="80" fill="#02010B" fill-opacity="0.905882"/>
<rect x="681" y="222" width="80" height="80" fill="#02010B" fill-opacity="0.905882"/>
<rect x="681" y="142" width="80" height="80" fill="#02010B" fill-opacity="0.905882"/>
<rect x="721" y="62" width="80" height="80" fill="#02010B" fill-opacity="0.905882"/>
<rect x="564" y="62" width="80" height="80" fill="#02010B" fill-opacity="0.905882"/>
<rect x="641" y="62" width="80" height="80" fill="#02010B" fill-opacity="0.905882"/>
<rect x="801" y="62" width="80" height="80" fill="#02010B" fill-opacity="0.905882"/>
<rect x="287" y="62" width="80" height="80" fill="#02010B" fill-opacity="0.905882"/>
<rect x="287" y="302" width="80" height="80" fill="#02010B" fill-opacity="0.905882"/>
<rect x="367" y="302" width="80" height="80" fill="#02010B" fill-opacity="0.905882"/>
<rect x="447" y="382" width="80" height="80" fill="#02010B" fill-opacity="0.905882"/>
<rect x="447" y="302" width="80" height="80" fill="#02010B" fill-opacity="0.905882"/>
<rect x="447" y="228" width="80" height="80" fill="#02010B" fill-opacity="0.905882"/>
<rect x="407" y="182" width="80" height="80" fill="#02010B" fill-opacity="0.905882"/>
<rect x="367" y="142" width="80" height="80" fill="#02010B" fill-opacity="0.905882"/>
<rect x="321" y="102" width="80" height="80" fill="#02010B" fill-opacity="0.905882"/>
<rect x="287" y="62" width="80" height="80" fill="#02010B" fill-opacity="0.905882"/>
<rect width="80" height="80" transform="matrix(-1 0 0 1 361 62)" fill="#02010B" fill-opacity="0.905882"/>
<rect width="80" height="80" transform="matrix(-1 0 0 1 201 228)" fill="#02010B" fill-opacity="0.905882"/>
<rect width="80" height="80" transform="matrix(-1 0 0 1 241 182)" fill="#02010B" fill-opacity="0.905882"/>
<rect width="80" height="80" transform="matrix(-1 0 0 1 281 142)" fill="#02010B" fill-opacity="0.905882"/>
<rect width="80" height="80" transform="matrix(-1 0 0 1 321 102)" fill="#02010B" fill-opacity="0.905882"/>
<rect width="80" height="80" transform="matrix(-1 0 0 1 361 62)" fill="#02010B" fill-opacity="0.905882"/>
<path d="M121 382H201V462H121V382Z" fill="#02010B" fill-opacity="0.905882"/>
<rect x="207" y="302" width="80" height="80" fill="#02010B" fill-opacity="0.905882"/>
<rect width="88" height="80" transform="matrix(-1 0 0 1 209 302)" fill="#02010B" fill-opacity="0.905882"/>
<rect x="268" y="50" width="80" height="80" fill="#E6E6E6"/>
<rect x="268" y="290" width="80" height="80" fill="#E6E6E6"/>
<rect x="348" y="290" width="80" height="80" fill="#E6E6E6"/>
<rect x="428" y="370" width="80" height="80" fill="#E6E6E6"/>
<rect x="428" y="290" width="80" height="80" fill="#E6E6E6"/>
<rect x="428" y="216" width="80" height="80" fill="#E6E6E6"/>
<rect x="388" y="170" width="80" height="80" fill="#E6E6E6"/>
<rect x="348" y="130" width="80" height="80" fill="#E6E6E6"/>
<rect x="302" y="90" width="80" height="80" fill="#E6E6E6"/>
<rect x="268" y="50" width="80" height="80" fill="#E6E6E6"/>
<rect width="80" height="80" transform="matrix(-1 0 0 1 342 50)" fill="#E6E6E6"/>
<rect width="80" height="80" transform="matrix(-1 0 0 1 182 216)" fill="#E6E6E6"/>
<rect width="80" height="80" transform="matrix(-1 0 0 1 222 170)" fill="#E6E6E6"/>
<rect width="80" height="80" transform="matrix(-1 0 0 1 262 130)" fill="#E6E6E6"/>
<rect width="80" height="80" transform="matrix(-1 0 0 1 302 90)" fill="#E6E6E6"/>
<rect width="80" height="80" transform="matrix(-1 0 0 1 342 50)" fill="#E6E6E6"/>
<path d="M102 370H182V450H102V370Z" fill="#E6E6E6"/>
<rect x="188" y="290" width="80" height="80" fill="#E6E6E6"/>
<rect width="88" height="80" transform="matrix(-1 0 0 1 190 290)" fill="#E6E6E6"/>
<rect x="778" y="50" width="80" height="80" fill="#E6E6E6"/>
<rect x="658" y="370" width="80" height="80" fill="#E6E6E6"/>
<rect x="658" y="290" width="80" height="80" fill="#E6E6E6"/>
<rect x="658" y="210" width="80" height="80" fill="#E6E6E6"/>
<rect x="658" y="130" width="80" height="80" fill="#E6E6E6"/>
<rect x="618" y="50" width="80" height="80" fill="#E6E6E6"/>
<rect x="538" y="50" width="80" height="80" fill="#E6E6E6"/>
<rect x="698" y="50" width="80" height="80" fill="#E6E6E6"/>
</svg>
